<svg width="16" height="15" viewBox="0 0 16 15" fill="none" xmlns="http://www.w3.org/2000/svg">
<path d="M9.1711 3.94154C9.7432 3.36965 10.5191 3.04836 11.3282 3.04836V1.95655C10.2295 1.95655 9.17573 2.39287 8.39881 3.16952L9.1711 3.94154ZM11.3282 3.04836C12.1372 3.04836 12.9132 3.36965 13.4853 3.94153L14.2576 3.16952C13.4807 2.39287 12.4269 1.95655 11.3282 1.95655V3.04836ZM13.4853 3.94153C14.0574 4.51345 14.3788 5.28911 14.3788 6.09787H15.471C15.471 4.9995 15.0344 3.94615 14.2576 3.16952L13.4853 3.94153ZM14.3788 6.09787C14.3788 6.90663 14.0574 7.68229 13.4853 8.2542L14.2576 9.02622C15.0344 8.24959 15.471 7.19624 15.471 6.09787H14.3788ZM13.4853 8.2542L9.12799 12.6099L9.90027 13.382L14.2576 9.02622L13.4853 8.2542ZM9.12799 12.6099C8.55587 13.1818 7.77994 13.5032 6.9709 13.5032V14.595C8.06965 14.595 9.12337 14.1586 9.90027 13.382L9.12799 12.6099ZM6.9709 13.5032C6.16185 13.5032 5.38592 13.1818 4.8138 12.6099L4.04152 13.382C4.81842 14.1586 5.87214 14.595 6.9709 14.595V13.5032ZM4.8138 12.6099C4.24171 12.0381 3.92031 11.2624 3.92031 10.4536H2.82812C2.82812 11.5519 3.26459 12.6053 4.04152 13.382L4.8138 12.6099ZM3.92031 10.4536C3.92031 9.64485 4.24171 8.86919 4.81381 8.2973L4.04151 7.52528C3.2646 8.30193 2.82812 9.35528 2.82812 10.4536H3.92031ZM4.81381 8.2973L9.1711 3.94154L8.39881 3.16952L4.04151 7.52528L4.81381 8.2973Z" fill="black"/>
<path d="M7.21447 5.12501C7.0012 4.91182 6.65544 4.91182 6.44217 5.12501C6.22891 5.33819 6.22891 5.68384 6.44217 5.89703L7.21447 5.12501ZM11.5286 10.9817C11.7419 11.1949 12.0877 11.1949 12.3009 10.9817C12.5142 10.7685 12.5142 10.4229 12.3009 10.2097L11.5286 10.9817ZM6.44217 5.89703L11.5286 10.9817L12.3009 10.2097L7.21447 5.12501L6.44217 5.89703Z" fill="black"/>
<path d="M3.35907 5.31254C3.46448 5.31254 3.55363 5.2761 3.62652 5.20324C3.6994 5.13038 3.73574 5.04137 3.73554 4.93619C3.73534 4.83101 3.699 4.7419 3.62652 4.66884C3.55403 4.59577 3.46488 4.55944 3.35907 4.55985C3.25325 4.56025 3.1642 4.59668 3.09192 4.66914C3.01963 4.7416 2.98319 4.83061 2.98259 4.93619C2.98199 5.04177 3.01843 5.13089 3.09192 5.20355C3.16541 5.27621 3.25446 5.31254 3.35907 5.31254ZM3.088 4.15339H3.64519C3.64519 3.9878 3.66406 3.85734 3.70181 3.76199C3.73956 3.66665 3.84618 3.53619 4.02167 3.3706C4.15218 3.24013 4.25508 3.11589 4.33038 2.99786C4.40567 2.87984 4.44332 2.73814 4.44332 2.57274C4.44332 2.29174 4.34042 2.07597 4.13461 1.92543C3.9288 1.77489 3.68535 1.69962 3.40424 1.69962C3.11812 1.69962 2.88601 1.77489 2.70791 1.92543C2.52981 2.07597 2.40552 2.25661 2.33505 2.46737L2.832 2.66307C2.8571 2.57274 2.91362 2.4749 3.00156 2.36952C3.08951 2.26414 3.22374 2.21145 3.40424 2.21145C3.56487 2.21145 3.68535 2.25541 3.76566 2.34332C3.84598 2.43124 3.88613 2.52778 3.88613 2.63296C3.88613 2.73332 3.85602 2.82745 3.79578 2.91537C3.73554 3.00328 3.66025 3.08477 3.56989 3.15984C3.34903 3.35554 3.21349 3.50357 3.1633 3.60393C3.1131 3.70429 3.088 3.88744 3.088 4.15339ZM3.37412 6.51684C2.95749 6.51684 2.56595 6.43786 2.19952 6.27989C1.83308 6.12193 1.51433 5.90736 1.24326 5.63619C0.972199 5.36502 0.757657 5.04638 0.599636 4.68028C0.441616 4.31417 0.362505 3.92277 0.362305 3.50608C0.362104 3.08939 0.441214 2.69799 0.599636 2.33188C0.758058 1.96578 0.9726 1.64714 1.24326 1.37597C1.51392 1.1048 1.83268 0.890332 2.19952 0.732568C2.56636 0.574804 2.95789 0.495722 3.37412 0.49532C3.79036 0.494919 4.1819 0.574001 4.54874 0.732568C4.91558 0.891135 5.23433 1.1056 5.50499 1.37597C5.77565 1.64633 5.99029 1.96497 6.14892 2.33188C6.30754 2.69879 6.38655 3.09019 6.38595 3.50608C6.38534 3.92197 6.30623 4.31336 6.14861 4.68028C5.991 5.04719 5.77645 5.36583 5.50499 5.63619C5.23352 5.90656 4.91477 6.12113 4.54874 6.27989C4.1827 6.43866 3.79116 6.51764 3.37412 6.51684ZM3.37412 5.91469C4.04677 5.91469 4.6165 5.68135 5.08333 5.21469C5.55017 4.74802 5.78358 4.17848 5.78358 3.50608C5.78358 2.83368 5.55017 2.26414 5.08333 1.79747C4.6165 1.33081 4.04677 1.09747 3.37412 1.09747C2.70149 1.09747 2.13175 1.33081 1.66492 1.79747C1.19808 2.26414 0.964669 2.83368 0.964669 3.50608C0.964669 4.17848 1.19808 4.74802 1.66492 5.21469C2.13175 5.68135 2.70149 5.91469 3.37412 5.91469Z" fill="black"/>
</svg>
