<svg width="14" height="10" viewBox="0 0 14 10" fill="none" xmlns="http://www.w3.org/2000/svg">
<path d="M8.47066 1.53003C8.39697 1.46137 8.33787 1.37857 8.29688 1.28657C8.25589 1.19457 8.23384 1.09526 8.23207 0.994554C8.23029 0.893851 8.24882 0.793822 8.28654 0.700433C8.32426 0.607045 8.3804 0.522211 8.45162 0.450993C8.52284 0.379774 8.60767 0.323629 8.70106 0.285908C8.79445 0.248187 8.89448 0.229663 8.99518 0.23144C9.09588 0.233217 9.1952 0.255258 9.2872 0.29625C9.3792 0.337242 9.462 0.396344 9.53066 0.470031L13.5307 4.47003C13.6711 4.61066 13.75 4.80128 13.75 5.00003C13.75 5.19878 13.6711 5.38941 13.5307 5.53003L9.53066 9.53003C9.462 9.60372 9.3792 9.66282 9.2872 9.70381C9.1952 9.7448 9.09588 9.76685 8.99518 9.76862C8.89448 9.7704 8.79445 9.75187 8.70106 9.71415C8.60767 9.67643 8.52284 9.62029 8.45162 9.54907C8.3804 9.47785 8.32426 9.39302 8.28654 9.29963C8.24882 9.20624 8.23029 9.10621 8.23207 9.00551C8.23384 8.90481 8.25589 8.80549 8.29688 8.71349C8.33787 8.62149 8.39697 8.53869 8.47066 8.47003L11.1907 5.75003L1.50066 5.75003C1.30175 5.75003 1.11098 5.67101 0.970329 5.53036C0.829676 5.38971 0.75066 5.19894 0.75066 5.00003C0.75066 4.80112 0.829676 4.61035 0.970329 4.4697C1.11098 4.32905 1.30175 4.25003 1.50066 4.25003L11.1907 4.25003L8.47066 1.53003Z" fill="#808080"/>
</svg>
