<svg width="28" height="40" viewBox="0 0 28 40" fill="none" xmlns="http://www.w3.org/2000/svg">
<path d="M23.2772 0.87763L21.1231 0.189622C19.1071 -0.454386 16.9511 0.587626 16.0871 2.62365L14.367 6.6797C13.617 8.44572 14.033 10.5237 15.3951 11.8158L19.1811 15.4118C18.9478 17.5638 18.2251 19.6819 17.0131 21.7659C15.8605 23.7816 14.3162 25.5463 12.471 26.9559L7.91897 25.4359C6.19495 24.8619 4.31693 25.5239 3.25892 27.0779L0.79489 30.698C-0.437124 32.506 -0.215119 34.998 1.3109 36.53L2.94692 38.1721C4.57493 39.8061 6.89896 40.4001 9.05099 39.7281C14.1284 38.1441 18.7971 33.442 23.0572 25.6219C27.3225 17.7885 28.8279 11.1431 27.5732 5.68569C27.0452 3.38966 25.4092 1.55964 23.2732 0.87763" fill="white"/>
</svg>
