<svg width="30" height="30" viewBox="0 0 30 30" fill="none" xmlns="http://www.w3.org/2000/svg">
<path d="M8.99999 13.4966C8.99999 13.0987 9.15803 12.7172 9.43933 12.4359C9.72064 12.1546 10.1022 11.9966 10.5 11.9966H19.5C19.8978 11.9966 20.2793 12.1546 20.5606 12.4359C20.842 12.7172 21 13.0987 21 13.4966C21 13.8944 20.842 14.2759 20.5606 14.5572C20.2793 14.8385 19.8978 14.9966 19.5 14.9966H10.5C10.1022 14.9966 9.72064 14.8385 9.43933 14.5572C9.15803 14.2759 8.99999 13.8944 8.99999 13.4966ZM10.5 17.9966C10.1022 17.9966 9.72064 18.1546 9.43933 18.4359C9.15803 18.7172 8.99999 19.0987 8.99999 19.4966C8.99999 19.8944 9.15803 20.2759 9.43933 20.5572C9.72064 20.8385 10.1022 20.9966 10.5 20.9966H16.5C16.8978 20.9966 17.2793 20.8385 17.5606 20.5572C17.842 20.2759 18 19.8944 18 19.4966C18 19.0987 17.842 18.7172 17.5606 18.4359C17.2793 18.1546 16.8978 17.9966 16.5 17.9966H10.5ZM1.69006e-06 14.9966C0.000754021 11.708 1.08223 8.51074 3.07798 5.89696C5.07373 3.28318 7.87314 1.39769 11.0454 0.530686C14.2176 -0.33632 17.5869 -0.136795 20.6347 1.09855C23.6824 2.3339 26.2397 4.53661 27.9131 7.36767C29.5864 10.1987 30.2829 13.5012 29.8955 16.7669C29.5082 20.0326 28.0583 23.0805 25.7691 25.4416C23.4799 27.8026 20.4782 29.3459 17.226 29.8339C13.9738 30.3219 10.6514 29.7277 7.77 28.1426L1.938 29.9185C1.67787 29.9978 1.4011 30.0048 1.13728 29.9389C0.873462 29.873 0.632527 29.7366 0.440244 29.5443C0.247962 29.352 0.111565 29.1111 0.0456457 28.8473C-0.0202741 28.5835 -0.013238 28.3067 0.0660015 28.0466L1.842 22.2056C0.632294 19.9954 -0.0011942 17.5161 1.69006e-06 14.9966ZM15 2.99657C12.8698 2.99639 10.778 3.56326 8.93933 4.63894C7.10069 5.71462 5.58153 7.26035 4.53788 9.11735C3.49423 10.9744 2.96371 13.0757 3.00082 15.2056C3.03792 17.3354 3.6413 19.417 4.749 21.2366C4.85895 21.4173 4.92943 21.6193 4.9558 21.8292C4.98217 22.0391 4.96383 22.2522 4.902 22.4546L3.753 26.2316L7.524 25.0826C7.72697 25.0207 7.94076 25.0026 8.15123 25.0295C8.36171 25.0564 8.56409 25.1277 8.745 25.2386C10.3265 26.2041 12.1102 26.7903 13.9562 26.9512C15.8022 27.1121 17.6604 26.8433 19.3851 26.1659C21.1098 25.4885 22.6543 24.4208 23.8973 23.0466C25.1404 21.6724 26.0483 20.029 26.55 18.2452C27.0516 16.4614 27.1334 14.5857 26.7888 12.765C26.4442 10.9443 25.6826 9.22819 24.5638 7.75108C23.445 6.27398 21.9993 5.07604 20.34 4.25116C18.6807 3.42628 16.853 2.99686 15 2.99657Z" fill="#1FC1B9"/>
</svg>
