<svg width="13" height="9" viewBox="0 0 13 9" fill="none" xmlns="http://www.w3.org/2000/svg">
<path d="M3.85714 4.5C5.10067 4.5 6.10714 3.49353 6.10714 2.25C6.10714 1.00647 5.10067 0 3.85714 0C2.61362 0 1.60714 1.00647 1.60714 2.25C1.60714 3.49353 2.61362 4.5 3.85714 4.5ZM5.4 5.14286H5.23326C4.8154 5.34375 4.35134 5.46429 3.85714 5.46429C3.36295 5.46429 2.90089 5.34375 2.48103 5.14286H2.31429C1.03661 5.14286 0 6.17946 0 7.45714V8.03571C0 8.56808 0.43192 9 0.964286 9H6.75C7.28237 9 7.71429 8.56808 7.71429 8.03571V7.45714C7.71429 6.17946 6.67768 5.14286 5.4 5.14286ZM9.64286 4.5C10.7076 4.5 11.5714 3.63616 11.5714 2.57143C11.5714 1.5067 10.7076 0.642857 9.64286 0.642857C8.57812 0.642857 7.71429 1.5067 7.71429 2.57143C7.71429 3.63616 8.57812 4.5 9.64286 4.5ZM10.6071 5.14286H10.5308C10.2516 5.23929 9.95625 5.30357 9.64286 5.30357C9.32946 5.30357 9.03415 5.23929 8.75491 5.14286H8.67857C8.26875 5.14286 7.89107 5.26138 7.5596 5.45223C8.04978 5.98058 8.35714 6.6817 8.35714 7.45714V8.22857C8.35714 8.27277 8.3471 8.31496 8.34509 8.35714H11.8929C12.4252 8.35714 12.8571 7.92522 12.8571 7.39286C12.8571 6.14933 11.8507 5.14286 10.6071 5.14286Z" fill="#ABABAB"/>
</svg>
