<svg width="16" height="16" viewBox="0 0 16 16" fill="none" xmlns="http://www.w3.org/2000/svg">
<path d="M1.63182 16C1.18307 16 0.799048 15.8403 0.479755 15.5211C0.160462 15.2018 0.00054394 14.8175 0 14.3682V4.27129C0 3.93132 0.0919259 3.6221 0.275778 3.3436C0.459629 3.0651 0.707666 2.86439 1.01989 2.74146L7.54716 0.130546C8.0911 -0.0870304 8.60105 -0.0326364 9.077 0.293728C9.55294 0.620091 9.79092 1.07564 9.79092 1.66038V2.94543C10.2397 2.94543 10.624 3.10535 10.9438 3.42519C11.2636 3.74503 11.4233 4.12905 11.4227 4.57725V5.39316C11.4227 5.62434 11.3444 5.81825 11.1878 5.97491C11.0311 6.13156 10.8375 6.20962 10.6068 6.20907C10.3762 6.20853 10.1826 6.1302 10.0259 5.97409C9.86924 5.81798 9.79092 5.62434 9.79092 5.39316V4.57725H1.63182V14.3682H5.03824C5.26942 14.3682 5.46333 14.4465 5.61999 14.6032C5.77664 14.7598 5.8547 14.9534 5.85415 15.1841C5.85361 15.4147 5.77528 15.6086 5.61917 15.7658C5.46306 15.923 5.26942 16.0011 5.03824 16H1.63182ZM4.89546 2.94543H8.1591V1.68077L4.89546 2.94543ZM11.4227 16C10.2941 16 9.3321 15.6021 8.53686 14.8063C7.74162 14.0105 7.34373 13.0486 7.34319 11.9204C7.34264 10.7923 7.74054 9.83035 8.53686 9.03457C9.33319 8.23878 10.2951 7.84089 11.4227 7.84089C12.5503 7.84089 13.5126 8.23878 14.3094 9.03457C15.1063 9.83035 15.5039 10.7923 15.5023 11.9204C15.5007 13.0486 15.1028 14.0108 14.3086 14.8071C13.5145 15.6035 12.5525 16.0011 11.4227 16ZM11.0352 13.5727L13.1157 12.2672C13.2517 12.1856 13.3197 12.07 13.3197 11.9204C13.3197 11.7709 13.2517 11.6553 13.1157 11.5737L11.0352 10.2682C10.8992 10.1866 10.7597 10.1831 10.6166 10.2576C10.4736 10.3321 10.4023 10.4513 10.4028 10.615V13.2259C10.4028 13.3891 10.4744 13.5082 10.6174 13.5833C10.7605 13.6583 10.8997 13.6548 11.0352 13.5727Z" fill="#FF5E14"/>
</svg>
