<svg width="17" height="15" viewBox="0 0 17 15" fill="none" xmlns="http://www.w3.org/2000/svg">
<path d="M8.2636 13.9999C11.4317 13.9999 13.9999 11.4317 13.9999 8.2636C13.9999 5.09555 11.4317 2.52734 8.2636 2.52734C5.09555 2.52734 2.52734 5.09555 2.52734 8.2636C2.52734 11.4317 5.09555 13.9999 8.2636 13.9999Z" stroke="#FF9500"/>
<path d="M3.31827 1C2.76235 1.14889 2.25542 1.44152 1.84847 1.84847C1.44152 2.25542 1.14889 2.76235 1 3.31827M13.2092 1C13.7651 1.14889 14.2721 1.44152 14.679 1.84847C15.086 2.25542 15.3786 2.76235 15.5275 3.31827M8.26374 4.98588V8.05888C8.26374 8.17196 8.35552 8.26374 8.46861 8.26374H10.7221" stroke="#FF9500" stroke-linecap="round"/>
</svg>
