<svg width="17" height="13" viewBox="0 0 17 13" fill="none" xmlns="http://www.w3.org/2000/svg">
<path opacity="0.5" d="M2.25992 12.3875H1.99993C1.05696 12.3875 0.585981 12.3875 0.29299 12.0945C2.08609e-07 11.8035 0 11.3315 0 10.3886V9.27662C0 8.75863 -1.04305e-07 8.49964 0.132995 8.26765C0.265991 8.03566 0.466984 7.91966 0.868971 7.68567C3.51488 6.14672 7.27176 5.28075 9.77867 6.7757C9.94733 6.87636 10.0973 6.99902 10.2287 7.14369C10.3632 7.29074 10.4669 7.4633 10.5336 7.65115C10.6002 7.83899 10.6285 8.03831 10.6168 8.23729C10.605 8.43626 10.5535 8.63086 10.4652 8.80956C10.3768 8.98825 10.2536 9.14741 10.1027 9.27761C9.98243 9.39177 9.8357 9.47424 9.67568 9.51761C9.79567 9.50361 9.91067 9.48794 10.0207 9.47061C10.9316 9.32561 11.6966 8.83763 12.3966 8.30865L14.2045 6.94369C14.5272 6.70952 14.9158 6.58341 15.3145 6.58341C15.7132 6.58341 16.1017 6.70952 16.4244 6.94369C16.9974 7.37668 17.1734 8.08966 16.8104 8.67164C16.3875 9.34961 15.7915 10.2166 15.2195 10.7466C14.6475 11.2765 13.7935 11.7505 13.0976 12.0865C12.3256 12.4595 11.4736 12.6735 10.6066 12.8145C8.8487 13.0985 7.01677 13.0545 5.27682 12.6965C4.28418 12.4922 3.27338 12.388 2.25992 12.3875Z" fill="#F83B3B"/>
<ellipse cx="8.49992" cy="2.49992" rx="2.49992" ry="2.49992" fill="#F83B3B"/>
<rect x="7.99902" y="0.999756" width="0.999967" height="2.9999" rx="0.499983" fill="#F3F7EC"/>
</svg>
