<svg width="13" height="13" viewBox="0 0 13 13" fill="none" xmlns="http://www.w3.org/2000/svg">
<path d="M6.5 0C2.91049 0 0 2.91049 0 6.5C0 10.0895 2.91049 13 6.5 13C10.0895 13 13 10.0895 13 6.5C13 2.91049 10.0895 0 6.5 0ZM6.5 11.8973C3.51987 11.8973 1.10268 9.48013 1.10268 6.5C1.10268 3.51987 3.51987 1.10268 6.5 1.10268C9.48013 1.10268 11.8973 3.51987 11.8973 6.5C11.8973 9.48013 9.48013 11.8973 6.5 11.8973Z" fill="#3F83F8"/>
<path d="M8.06102 8.7997C7.84774 8.84033 7.59819 8.85919 7.30946 8.85919C6.3156 8.85919 5.64819 8.32816 5.4262 7.42861H7.32107C7.3849 7.42861 7.43714 7.37637 7.43714 7.31253V6.91789C7.43714 6.85405 7.3849 6.80182 7.32107 6.80182H5.34205V6.2795C5.34205 6.21131 5.34205 6.14312 5.3464 6.07928H7.31816C7.382 6.07928 7.43424 6.02704 7.43424 5.9632V5.56856C7.43424 5.50472 7.382 5.45249 7.31816 5.45249H5.45667C5.70622 4.62693 6.36057 4.14088 7.30801 4.14088C7.59674 4.14088 7.84629 4.16265 8.05812 4.20472C8.07494 4.20816 8.09231 4.20782 8.10898 4.20373C8.12565 4.19964 8.14121 4.19191 8.15453 4.18108C8.16785 4.17026 8.17861 4.15661 8.18602 4.14113C8.19343 4.12565 8.19732 4.10872 8.19741 4.09155V3.47057C8.19741 3.41544 8.15968 3.36901 8.106 3.3574C7.87531 3.30662 7.60689 3.27905 7.30366 3.27905C5.75555 3.27905 4.70801 4.0872 4.42218 5.45394H3.9608C3.89696 5.45394 3.84473 5.50617 3.84473 5.57001V5.96466C3.84473 6.02849 3.89696 6.08073 3.9608 6.08073H4.34383C4.33948 6.14021 4.33948 6.2026 4.33948 6.26644V6.80182H3.9608C3.89696 6.80182 3.84473 6.85405 3.84473 6.91789V7.31253C3.84473 7.37637 3.89696 7.42861 3.9608 7.42861H4.39897C4.64852 8.86789 5.71058 9.72102 7.30366 9.72102C7.60689 9.72102 7.87531 9.69635 8.106 9.64702C8.15968 9.63542 8.19886 9.58899 8.19886 9.53385V8.91287C8.19886 8.84032 8.13211 8.78519 8.06102 8.7997Z" fill="#3F83F8"/>
</svg>
