<svg width="13" height="15" viewBox="0 0 13 15" fill="none" xmlns="http://www.w3.org/2000/svg">
<path d="M7.5 6.85H9.775M1 5.7892C1 3.53175 1 2.4027 1.66625 1.70135C2.3325 1 3.405 1 5.55 1H7.5C9.645 1 10.7175 1 11.3837 1.702C12.05 2.40205 12.05 3.5311 12.05 5.78855V9.21015C12.05 11.4676 12.05 12.5966 11.3837 13.298C10.7175 13.9993 9.645 14 7.5 14H5.55C3.405 14 2.3325 14 1.66625 13.298C1 12.5979 1 11.4689 1 9.21145V5.7892Z" stroke="#FF5E14" stroke-linecap="round" stroke-linejoin="round"/>
<path d="M3.2749 7.5C3.2749 7.5 3.5999 7.5 3.9249 8.15C3.9249 8.15 4.9571 6.525 5.8749 6.2M7.4999 10.75H9.7749M3.9249 1L3.9782 1.32045C4.1082 2.0985 4.1732 2.48785 4.4462 2.71925C4.7179 2.95 5.11245 2.95 5.90155 2.95H7.1476C7.93605 2.95 8.3306 2.95 8.6036 2.71925C8.8766 2.48785 8.9416 2.0985 9.07095 1.32045L9.1249 1M3.9249 10.75H4.5749" stroke="#FF5E14" stroke-linecap="round" stroke-linejoin="round"/>
</svg>
