<svg width="13" height="13" viewBox="0 0 13 13" fill="none" xmlns="http://www.w3.org/2000/svg">
<path d="M5.90014 3.81086C5.98732 3.72368 6.0363 3.60543 6.0363 3.48214C6.0363 3.35885 5.98732 3.24061 5.90014 3.15343C5.81296 3.06625 5.69472 3.01727 5.57143 3.01727C5.44814 3.01727 5.32989 3.06625 5.24271 3.15343L3.93157 4.46457L3.56293 4.12843C3.47133 4.05014 3.35289 4.01053 3.23262 4.01796C3.11236 4.02539 2.9997 4.07929 2.91844 4.16826C2.83718 4.25724 2.7937 4.37431 2.79717 4.49476C2.80065 4.6152 2.85082 4.72958 2.93707 4.81371L3.6335 5.44979C3.72174 5.53013 3.83753 5.5734 3.95683 5.57064C4.07613 5.56787 4.18979 5.51927 4.27421 5.43493L5.90014 3.81086ZM5.90014 7.79629C5.94338 7.83941 5.97768 7.89065 6.00109 7.94705C6.0245 8.00346 6.03654 8.06393 6.03654 8.125C6.03654 8.18607 6.0245 8.24654 6.00109 8.30295C5.97768 8.35935 5.94338 8.41059 5.90014 8.45371L4.27514 10.0787C4.19056 10.1632 4.07664 10.2118 3.95712 10.2144C3.83759 10.217 3.72167 10.1734 3.6335 10.0926L2.93707 9.45657C2.85082 9.37243 2.80065 9.25806 2.79717 9.13762C2.7937 9.01717 2.83718 8.90009 2.91844 8.81112C2.9997 8.72215 3.11236 8.66825 3.23262 8.66082C3.35289 8.65338 3.47133 8.693 3.56293 8.77129L3.93157 9.10836L5.24271 7.79629C5.28584 7.75305 5.33708 7.71874 5.39348 7.69534C5.44989 7.67193 5.51036 7.65988 5.57143 7.65988C5.6325 7.65988 5.69297 7.67193 5.74937 7.69534C5.80578 7.71874 5.85701 7.75305 5.90014 7.79629ZM7.42857 8.35714C7.30544 8.35714 7.18734 8.40606 7.10027 8.49313C7.0132 8.5802 6.96429 8.69829 6.96429 8.82143C6.96429 8.94456 7.0132 9.06266 7.10027 9.14973C7.18734 9.2368 7.30544 9.28571 7.42857 9.28571H9.75C9.87314 9.28571 9.99123 9.2368 10.0783 9.14973C10.1654 9.06266 10.2143 8.94456 10.2143 8.82143C10.2143 8.69829 10.1654 8.5802 10.0783 8.49313C9.99123 8.40606 9.87314 8.35714 9.75 8.35714H7.42857ZM6.96429 4.17857C6.96429 4.05544 7.0132 3.93734 7.10027 3.85027C7.18734 3.7632 7.30544 3.71429 7.42857 3.71429H9.75C9.87314 3.71429 9.99123 3.7632 10.0783 3.85027C10.1654 3.93734 10.2143 4.05544 10.2143 4.17857C10.2143 4.30171 10.1654 4.4198 10.0783 4.50687C9.99123 4.59394 9.87314 4.64286 9.75 4.64286H7.42857C7.30544 4.64286 7.18734 4.59394 7.10027 4.50687C7.0132 4.4198 6.96429 4.30171 6.96429 4.17857ZM2.78571 0C2.0469 0 1.33834 0.293494 0.815917 0.815917C0.293494 1.33834 0 2.0469 0 2.78571V10.2143C0 10.9531 0.293494 11.6617 0.815917 12.1841C1.33834 12.7065 2.0469 13 2.78571 13H10.2143C10.9531 13 11.6617 12.7065 12.1841 12.1841C12.7065 11.6617 13 10.9531 13 10.2143V2.78571C13 2.0469 12.7065 1.33834 12.1841 0.815917C11.6617 0.293494 10.9531 0 10.2143 0H2.78571ZM0.928571 2.78571C0.928571 2.29317 1.12423 1.8208 1.47252 1.47252C1.8208 1.12423 2.29317 0.928571 2.78571 0.928571H10.2143C10.7068 0.928571 11.1792 1.12423 11.5275 1.47252C11.8758 1.8208 12.0714 2.29317 12.0714 2.78571V10.2143C12.0714 10.7068 11.8758 11.1792 11.5275 11.5275C11.1792 11.8758 10.7068 12.0714 10.2143 12.0714H2.78571C2.29317 12.0714 1.8208 11.8758 1.47252 11.5275C1.12423 11.1792 0.928571 10.7068 0.928571 10.2143V2.78571Z" fill="#AF52DE"/>
</svg>
