<svg width="8" height="9" viewBox="0 0 8 9" fill="none" xmlns="http://www.w3.org/2000/svg">
<path d="M3.77344 4.55426H3.40938C3.40938 4.68848 3.48327 4.8118 3.60165 4.87513C3.72003 4.93846 3.86367 4.93152 3.97538 4.85707L3.77344 4.55426ZM5.06757 4.1292C5.23487 4.01771 5.28008 3.79175 5.16854 3.62452C5.05701 3.45728 4.83098 3.41209 4.66368 3.52358L5.06757 4.1292ZM4.1375 2.73459C4.1375 2.53359 3.9745 2.37065 3.77344 2.37065C3.57237 2.37065 3.40938 2.53359 3.40938 2.73459H4.1375ZM0.132812 4.55426C0.132812 5.03219 0.22698 5.50543 0.409938 5.94698L1.08264 5.66843C0.936272 5.3152 0.860938 4.9366 0.860938 4.55426H0.132812ZM0.409938 5.94698C0.592897 6.38852 0.861063 6.78972 1.19913 7.12766L1.71399 6.61298C1.44354 6.34263 1.22901 6.02167 1.08264 5.66843L0.409938 5.94698ZM1.19913 7.12766C1.53719 7.46561 1.93853 7.73368 2.38023 7.91658L2.65887 7.24411C2.30551 7.0978 1.98444 6.88334 1.71399 6.61298L1.19913 7.12766ZM2.38023 7.91658C2.82193 8.09947 3.29534 8.1936 3.77344 8.1936V7.46573C3.39096 7.46573 3.01223 7.39043 2.65887 7.24411L2.38023 7.91658ZM3.77344 8.1936C4.25153 8.1936 4.72494 8.09947 5.16664 7.91658L4.888 7.24411C4.53464 7.39043 4.15591 7.46573 3.77344 7.46573V8.1936ZM5.16664 7.91658C5.60835 7.73368 6.00969 7.46561 6.34775 7.12766L5.83289 6.61298C5.56244 6.88334 5.24136 7.0978 4.888 7.24411L5.16664 7.91658ZM6.34775 7.12766C6.68581 6.78972 6.95398 6.38852 7.13694 5.94698L6.46424 5.66843C6.31787 6.02167 6.10334 6.34263 5.83289 6.61298L6.34775 7.12766ZM7.13694 5.94698C7.3199 5.50543 7.41406 5.03218 7.41406 4.55426H6.68594C6.68594 4.9366 6.6106 5.3152 6.46424 5.66843L7.13694 5.94698ZM7.41406 4.55426C7.41406 4.07633 7.3199 3.60309 7.13694 3.16154L6.46424 3.44009C6.6106 3.79332 6.68594 4.17192 6.68594 4.55426H7.41406ZM7.13694 3.16154C6.95398 2.72 6.68581 2.3188 6.34775 1.98085L5.83289 2.49553C6.10334 2.76589 6.31787 3.08685 6.46424 3.44009L7.13694 3.16154ZM6.34775 1.98085C6.00969 1.64291 5.60835 1.37484 5.16664 1.19194L4.888 1.86441C5.24136 2.01072 5.56244 2.22518 5.83289 2.49553L6.34775 1.98085ZM5.16664 1.19194C4.72494 1.00905 4.25153 0.914915 3.77344 0.914915V1.64278C4.15591 1.64278 4.53464 1.71809 4.888 1.86441L5.16664 1.19194ZM3.77344 0.914915C3.29534 0.914915 2.82193 1.00905 2.38023 1.19194L2.65887 1.86441C3.01223 1.71809 3.39096 1.64278 3.77344 1.64278V0.914915ZM2.38023 1.19194C1.93853 1.37484 1.53719 1.64291 1.19913 1.98085L1.71399 2.49553C1.98444 2.22518 2.30551 2.01072 2.65887 1.86441L2.38023 1.19194ZM1.19913 1.98085C0.861063 2.3188 0.592897 2.72 0.409938 3.16154L1.08264 3.44009C1.22901 3.08685 1.44354 2.76589 1.71399 2.49553L1.19913 1.98085ZM0.409938 3.16154C0.22698 3.60309 0.132812 4.07633 0.132812 4.55426H0.860938C0.860938 4.17192 0.936272 3.79332 1.08264 3.44009L0.409938 3.16154ZM3.97538 4.85707L5.06757 4.1292L4.66368 3.52358L3.57149 4.25145L3.97538 4.85707ZM3.40938 2.73459V4.55426H4.1375V2.73459H3.40938Z" fill="#FF5E14"/>
</svg>
