<svg width="18" height="18" viewBox="0 0 18 18" fill="none" xmlns="http://www.w3.org/2000/svg">
<path d="M12.552 16.4778L12.9944 15.9258C13.3824 15.4402 14.2072 15.4794 14.5344 15.9978C14.9288 16.6226 15.9031 16.4986 16.1735 15.9242C16.1879 15.8946 16.1527 15.969 16.1823 15.7106C16.2127 15.4522 16.1999 15.393 16.1743 15.2754L14.6368 8.01161C14.2496 6.18526 14.0568 5.27248 13.3912 4.73569C12.728 4.19971 11.7881 4.19971 9.9121 4.19971H8.09055C6.21299 4.19971 5.27462 4.19971 4.60983 4.73569C3.94425 5.27168 3.75145 6.18526 3.36426 8.01081L1.8259 15.2746C1.8011 15.393 1.7883 15.4522 1.8179 15.7106C1.8483 15.969 1.8139 15.8946 1.8275 15.9242C2.09789 16.4986 3.07227 16.6234 3.46666 15.9986C3.79465 15.4794 4.61863 15.4402 5.00662 15.9258L5.44821 16.4778C6.005 17.1738 7.16817 17.1738 7.72415 16.4778L7.79375 16.3906C8.38414 15.653 9.61771 15.653 10.2081 16.3906L10.2777 16.4778C10.8345 17.1738 11.9968 17.1738 12.5536 16.4778" stroke="#666666" stroke-linecap="round" stroke-linejoin="round"/>
<path d="M1.38656 6.99985C0.918575 6.51346 1.00657 5.88708 1.00657 4.32152C1.00657 2.75596 1.00657 1.97278 1.47536 1.48639C1.94335 1 2.69613 1 4.20409 1H13.7959C15.303 1 16.0566 1 16.5254 1.48639C16.9942 1.97278 16.9934 2.75596 16.9934 4.32152C16.9934 5.88708 17.0814 6.51346 16.6126 6.99985M8.99997 7.39984H6.60003M10.5999 10.5998H5.80005" stroke="#666666" stroke-linecap="round" stroke-linejoin="round"/>
</svg>
