<svg width="22" height="21" viewBox="0 0 22 21" fill="none" xmlns="http://www.w3.org/2000/svg">
<path d="M21 10.4995H7.64324M2.92865 10.4995H1M2.92865 10.4995C2.92865 9.87441 3.17695 9.27496 3.61893 8.83298C4.0609 8.391 4.66035 8.1427 5.28541 8.1427C5.91046 8.1427 6.50991 8.391 6.95188 8.83298C7.39386 9.27496 7.64216 9.87441 7.64216 10.4995C7.64216 11.1245 7.39386 11.724 6.95188 12.1659C6.50991 12.6079 5.91046 12.8562 5.28541 12.8562C4.66035 12.8562 4.0609 12.6079 3.61893 12.1659C3.17695 11.724 2.92865 11.1245 2.92865 10.4995ZM21 17.6422H14.7859M14.7859 17.6422C14.7859 18.2674 14.537 18.8675 14.095 19.3096C13.6529 19.7516 13.0533 20 12.4281 20C11.8031 20 11.2036 19.7506 10.7616 19.3086C10.3197 18.8667 10.0714 18.2672 10.0714 17.6422M14.7859 17.6422C14.7859 17.017 14.537 16.4179 14.095 15.9758C13.6529 15.5338 13.0533 15.2854 12.4281 15.2854C11.8031 15.2854 11.2036 15.5337 10.7616 15.9757C10.3197 16.4177 10.0714 17.0171 10.0714 17.6422M10.0714 17.6422H1M21 3.35676H17.6432M12.9286 3.35676H1M12.9286 3.35676C12.9286 2.73171 13.1769 2.13226 13.6189 1.69028C14.0609 1.2483 14.6604 1 15.2854 1C15.5949 1 15.9014 1.06096 16.1873 1.1794C16.4732 1.29784 16.733 1.47143 16.9519 1.69028C17.1707 1.90912 17.3443 2.16893 17.4628 2.45486C17.5812 2.7408 17.6422 3.04726 17.6422 3.35676C17.6422 3.66625 17.5812 3.97271 17.4628 4.25865C17.3443 4.54458 17.1707 4.80439 16.9519 5.02323C16.733 5.24208 16.4732 5.41568 16.1873 5.53412C15.9014 5.65255 15.5949 5.71351 15.2854 5.71351C14.6604 5.71351 14.0609 5.46521 13.6189 5.02323C13.1769 4.58126 12.9286 3.98181 12.9286 3.35676Z" stroke="#3D422F" stroke-width="2" stroke-miterlimit="10" stroke-linecap="round"/>
</svg>
