<svg width="10" height="10" viewBox="0 0 10 10" fill="none" xmlns="http://www.w3.org/2000/svg">
<path d="M4.26 7.37401H5.13375V4.75368H4.26V7.37401ZM4.69687 3.88024C4.82065 3.88024 4.92448 3.83831 5.00836 3.75446C5.09224 3.67061 5.13404 3.56696 5.13375 3.44352C5.13346 3.32007 5.09152 3.21642 5.00793 3.13257C4.92434 3.04872 4.82065 3.0068 4.69687 3.0068C4.57309 3.0068 4.46941 3.04872 4.38582 3.13257C4.30223 3.21642 4.26029 3.32007 4.26 3.44352C4.25971 3.56696 4.30165 3.67076 4.38582 3.7549C4.46999 3.83904 4.57367 3.88082 4.69687 3.88024ZM4.69687 9.55761C4.09253 9.55761 3.52459 9.4429 2.99306 9.21348C2.46153 8.98405 1.99917 8.67296 1.60598 8.28021C1.2128 7.88745 0.901596 7.42525 0.672382 6.89362C0.443169 6.36198 0.328417 5.79424 0.328126 5.1904C0.327834 4.58656 0.442587 4.01883 0.672382 3.48719C0.902179 2.95556 1.21338 2.49336 1.60598 2.1006C1.99859 1.70784 2.46095 1.39675 2.99306 1.16733C3.52517 0.937903 4.09311 0.823191 4.69687 0.823191C5.30063 0.823191 5.86857 0.937903 6.40068 1.16733C6.9328 1.39675 7.39516 1.70784 7.78776 2.1006C8.18037 2.49336 8.49171 2.95556 8.7218 3.48719C8.95189 4.01883 9.06649 4.58656 9.06562 5.1904C9.06475 5.79424 8.94999 6.36198 8.72136 6.89362C8.49273 7.42525 8.18153 7.88745 7.78776 8.28021C7.39399 8.67296 6.93163 8.9842 6.40068 9.21391C5.86974 9.44363 5.3018 9.5582 4.69687 9.55761ZM4.69687 8.68417C5.67256 8.68417 6.49898 8.34571 7.17614 7.66879C7.85329 6.99188 8.19187 6.16575 8.19187 5.1904C8.19187 4.21506 7.85329 3.38893 7.17614 2.71201C6.49898 2.03509 5.67256 1.69663 4.69687 1.69663C3.72119 1.69663 2.89476 2.03509 2.21761 2.71201C1.54045 3.38893 1.20187 4.21506 1.20187 5.1904C1.20187 6.16575 1.54045 6.99188 2.21761 7.66879C2.89476 8.34571 3.72119 8.68417 4.69687 8.68417Z" fill="#FF5E14"/>
</svg>
