<svg width="31" height="32" viewBox="0 0 31 32" fill="none" xmlns="http://www.w3.org/2000/svg">
<path fill-rule="evenodd" clip-rule="evenodd" d="M6.88889 3.61437C5.95889 3.65399 5.29067 3.74182 4.69994 3.9416C3.68966 4.27987 2.77161 4.84786 2.01795 5.60092C1.26429 6.35398 0.695574 7.27158 0.3565 8.2816C2.56631e-08 9.3511 0 10.6703 0 13.3122C0 13.4758 1.92473e-08 13.5585 0.0223889 13.6239C0.0435323 13.6873 0.0791249 13.7449 0.126352 13.7921C0.173579 13.8393 0.231146 13.8749 0.2945 13.896C0.359944 13.9184 0.442611 13.9184 0.607944 13.9184H30.3921C30.5574 13.9184 30.6401 13.9184 30.7055 13.896C30.7689 13.8749 30.8264 13.8393 30.8736 13.7921C30.9209 13.7449 30.9565 13.6873 30.9776 13.6239C31 13.5568 31 13.4741 31 13.3088C31 10.6686 31 9.34765 30.6435 8.28332C30.3049 7.27267 29.7364 6.35438 28.9827 5.60069C28.229 4.84701 27.3107 4.27849 26.3001 3.93987C25.7093 3.74182 25.0394 3.65399 24.1111 3.61437V7.88893C24.1111 8.57407 23.8389 9.23115 23.3545 9.71562C22.87 10.2001 22.2129 10.4723 21.5278 10.4723C20.8426 10.4723 20.1856 10.2001 19.7011 9.71562C19.2166 9.23115 18.9444 8.57407 18.9444 7.88893V3.58337H12.0556V7.88893C12.0556 8.57407 11.7834 9.23115 11.2989 9.71562C10.8144 10.2001 10.1574 10.4723 9.47222 10.4723C8.78708 10.4723 8.13 10.2001 7.64553 9.71562C7.16106 9.23115 6.88889 8.57407 6.88889 7.88893V3.61437Z" fill="#185085"/>
<path d="M0 16.5C0 16.0936 -7.45058e-08 15.8904 0.125722 15.7646C0.251444 15.6389 0.454667 15.6389 0.861111 15.6389H30.1389C30.5453 15.6389 30.7486 15.6389 30.8743 15.7646C31 15.8904 31 16.0936 31 16.5V17.3611C31 23.8556 31 27.1037 28.9816 29.1205C26.9631 31.1372 23.7167 31.1389 17.2222 31.1389H13.7778C7.28328 31.1389 4.03517 31.1389 2.01844 29.1205C0.0017221 27.102 0 23.8556 0 17.3611V16.5Z" fill="black" fill-opacity="0.5"/>
<path d="M9.47217 1V7.88889M21.5277 1V7.88889" stroke="black" stroke-linecap="round"/>
</svg>
