<svg xmlns="http://www.w3.org/2000/svg" viewBox="0 0 1558.89 1285.82"><defs><style>.cls-1{isolation:isolate;}.cls-2{fill:#a7cfd6;}.cls-13,.cls-16,.cls-2,.cls-3,.cls-7{mix-blend-mode:multiply;}.cls-3,.cls-4{fill:#6ba5b2;}.cls-5{fill:#ddeff2;}.cls-6{fill:#fff;}.cls-14,.cls-7{fill:#e4e5e6;}.cls-8{fill:#414042;}.cls-9{fill:#a5a7aa;}.cls-10{fill:#cfd1d2;}.cls-11{fill:#323233;}.cls-12{fill:#babcbe;}.cls-15{fill:#e1faff;}.cls-16,.cls-20{fill:#eff0f0;}.cls-17{fill:#86a1a8;}.cls-18{fill:#fa7075;}.cls-19{fill:#a6bdc5;}.cls-21{fill:#ed985f;}.cls-22{fill:#ba9b8e;}.cls-23{fill:#d6414c;}.cls-24{fill:#db8c56;}.cls-25{fill:#fca769;}.cls-26{fill:#8e3209;}.cls-27{fill:#c5c5c5;}.cls-28{fill:#a5411b;}.cls-29{fill:#7a2605;}.cls-30{fill:#232323;}.cls-31{fill:#b22839;}</style></defs><g class="cls-1"><g id="Layer_2" data-name="Layer 2"><g id="OBJECTS"><path class="cls-2" d="M1295.09,503.24S1605.26,686,1552.94,834.44c-74.77,212.2-295.41,96.28-613.9,181.47-247.64,66.23-317.24,238.56-520.59,127.18C310.54,1084,415.26,829.78,322.32,721.5,157.81,529.85-48.81,561.5,22.88,300.2,133.76-103.87,1295.09,503.24,1295.09,503.24Z"/><path class="cls-3" d="M1507.41,521.39c74-114.21,89.55-393.39-203.83-444.14-196.33-34-283.33,126.89-536.83,20.3S349.38-31.89,238.29,92.47c-113,126.47,68.57,328.74-105.19,463.26S-63.63,922.39,180.81,993.45c164.1,47.7,353.71-124.36,504.68,10.15s408,250.86,566.82,134.51c128.17-93.91,39.87-241.11,94-370.55C1402.42,633.35,1436.16,631.27,1507.41,521.39Z"/><path class="cls-4" d="M1249.63,72.48c-34.36-31-77.12-53.84-133.52-62.77-82.78-13.11-165.39,38-252.86,92.14-77.52,48-157.67,97.56-244.1,106-172.55,16.78-493.74,48-575.07,228.47C11.94,507.57,28,569.55,62.78,625.45c-1.72,2.2-3.29,4.44-4.93,6.67-37.1-58.29-54.82-123.3-20.71-199,83.14-184.48,407.19-216,581.27-232.91C703.08,192,782.47,142.88,859.24,95.37,948,40.48,1031.76-11.39,1117.3,2.19c61.94,9.81,107.78,35.67,144.09,70.62C1257.44,72.65,1253.5,72.49,1249.63,72.48Z"/><path class="cls-4" d="M342.74,989.29c55.6,68,119.68,124.83,180.34,139.49,182.54,44.06,319.94-62,420.26-139.45l6.13-4.73c69.6-53.69,153.44-86.66,242.45-95.35,90.16-8.8,155.69-24.8,212.47-51.9,54.2-25.86,99.73-98.43,116-184.85,9.75-51.85,7.72-101.21-5.14-144.22,1.68-3,3.33-6.15,4.93-9.36,15.22,45.83,18.22,99,7.7,155-16.68,88.74-63.86,163.44-120.18,190.33-57.61,27.49-123.93,43.72-215,52.6-87.57,8.54-170.06,41-238.53,93.8L948,995.36c-85,65.58-196.16,151.44-339.19,151.44a371.55,371.55,0,0,1-87.5-10.62c-63.18-15.26-129.64-74.64-186.8-145.11C337.24,990.49,340,989.9,342.74,989.29Z"/><path class="cls-5" d="M861,490.32c28.8,16.63,52.08,56.94,52,90L912.63,718c-.09,33.09-23.53,46.45-52.33,29.82L714.46,663.65,638,691.41l.21-71.76-9.1-5.25c-28.8-16.63-52.07-56.95-52-90l.39-137.69c.09-33.09,23.51-46.44,52.31-29.81Z"/><path class="cls-6" d="M955,553.61c0-.84-.06-1.68-.11-2.52,0-.39-.07-.77-.09-1.16,0-.16,0-.33,0-.5s-.05-.59-.07-.88c-.09-.84-.18-1.69-.29-2.55s-.23-1.74-.37-2.62a.24.24,0,0,0,0-.08s0-.07,0-.1c-.13-.82-.27-1.63-.43-2.45s-.35-1.81-.55-2.72c-.07-.33-.15-.65-.23-1s-.08-.38-.13-.57l-.27-1.19c-.23-.92-.48-1.84-.73-2.77-.19-.67-.39-1.35-.6-2,0-.12-.06-.24-.1-.36s-.07-.24-.11-.36c-.27-.9-.56-1.8-.86-2.69s-.61-1.79-.93-2.67c-.06-.17-.12-.33-.19-.5s-.09-.26-.14-.4c-.21-.54-.41-1.09-.62-1.64-.33-.85-.67-1.69-1-2.53-.26-.62-.52-1.23-.79-1.84l-.13-.31-.15-.34c-.37-.85-.76-1.69-1.15-2.53s-.88-1.84-1.33-2.75l-.22-.43-.28-.53c-.37-.73-.73-1.45-1.12-2.17-.48-.91-1-1.8-1.51-2.7-.25-.44-.5-.9-.76-1.35-.1-.17-.19-.35-.3-.53-.45-.77-.95-1.51-1.43-2.27-.69-1.13-1.38-2.27-2.11-3.37-.11-.18-.21-.36-.33-.53q-1.61-2.4-3.3-4.71c-.76-1-1.53-2-2.32-3-.64-.81-1.29-1.61-1.94-2.4l0-.06,0,0c-.67-.8-1.34-1.58-2-2.35s-1.34-1.51-2-2.25l-.34-.36-.35-.37c-.48-.51-1-1-1.44-1.51-.72-.73-1.45-1.46-2.2-2.17l-.69-.65-.52-.48c-.36-.33-.72-.68-1.08-1-.77-.69-1.54-1.37-2.32-2l-1-.84-.53-.43c-.25-.2-.5-.42-.76-.62-.76-.6-1.52-1.18-2.29-1.74-.56-.42-1.11-.81-1.68-1.2l-.3-.22-.29-.2c-.73-.51-1.47-1-2.22-1.47s-1.46-.91-2.2-1.35l-.52-.3L671.85,332.47c-.55-.32-1.11-.63-1.66-.93l-.62-.32-.86-.45-.66-.34-1-.49-.76-.36-.31-.14c-.69-.32-1.39-.61-2.08-.88h0c-.7-.28-1.4-.55-2.1-.79l-.27-.09c-.25-.09-.5-.16-.75-.24s-.71-.25-1.07-.35c-.17-.06-.34-.09-.52-.15l-.92-.25-.71-.2-.74-.16-.91-.2-.49-.11c-.29-.06-.57-.09-.85-.15l-1.06-.17-.37-.06-.86-.09-1.13-.11-.33,0-.75,0c-.45,0-.89,0-1.33,0l-.37,0c-.19,0-.37,0-.56,0-.56,0-1.11,0-1.65.08l-.49,0-.36.05c-.83.09-1.65.2-2.45.36l-.2,0h0a25.76,25.76,0,0,0-3.32.91c-.09,0-.2,0-.29.08a2.18,2.18,0,0,1-.23.09c-.47.17-.92.37-1.37.56l-.68.29c-.66.31-1.31.64-1.94,1l-42,24.4q.94-.56,2-1l.67-.28c.45-.2.91-.39,1.37-.56.17-.07.35-.12.52-.18a28,28,0,0,1,3.32-.91l.24,0c.8-.15,1.61-.26,2.44-.35l.86-.08c.54,0,1.08-.06,1.63-.08h1c.43,0,.88,0,1.32,0l1.08.06,1.13.12,1.24.15,1,.17c.44.08.89.15,1.34.25l.91.2c.48.11,1,.23,1.45.37.31.07.61.16.92.25.53.15,1.06.32,1.59.49l.75.25c.79.27,1.58.56,2.38.88h0c.79.32,1.58.66,2.38,1l.77.36c.56.26,1.13.54,1.7.83l.85.44c.76.4,1.52.81,2.28,1.25L861,490.32q2.64,1.53,5.22,3.32l.3.21q2.4,1.68,4.74,3.57l.52.42q2.25,1.86,4.43,3.88l.53.48q2.21,2.08,4.32,4.32c.12.13.24.25.35.38,1.51,1.61,3,3.27,4.42,5l0,.05q2.19,2.66,4.26,5.44h0c1.25,1.7,2.46,3.45,3.63,5.22.73,1.1,1.42,2.25,2.11,3.37.58.94,1.17,1.86,1.72,2.8.27.46.51.92.77,1.37.9,1.6,1.79,3.21,2.62,4.85.1.18.19.36.28.54q1.51,3,2.85,6c0,.11.09.21.13.31.87,2,1.68,4,2.43,6l.15.41c.76,2.07,1.46,4.14,2.08,6.21,0,.12.07.24.11.37.6,2,1.13,4,1.6,6,0,.19.08.38.13.57.47,2.06.88,4.11,1.2,6.14a.43.43,0,0,0,0,.11q.48,3.09.74,6.13c0,.17,0,.33,0,.5.16,2,.25,4,.24,6L912.63,718c0,2-.1,3.88-.27,5.72,0,.16,0,.32-.05.49-.17,1.68-.41,3.31-.71,4.86,0,.21-.09.41-.13.63-.31,1.5-.69,3-1.12,4.33-.08.26-.17.51-.25.76a38.08,38.08,0,0,1-1.46,3.73c-.06.13-.11.27-.17.41a32.7,32.7,0,0,1-2.09,3.79l-.33.45a27.46,27.46,0,0,1-2,2.67c-.26.31-.53.59-.8.88a23.37,23.37,0,0,1-2,1.9c-.28.24-.55.5-.84.73a23.89,23.89,0,0,1-3,2.09l42-24.39a23.86,23.86,0,0,0,3-2.1c.29-.23.57-.48.85-.72.68-.6,1.33-1.23,2-1.9.27-.29.54-.58.8-.89a28.58,28.58,0,0,0,2-2.66c.1-.16.22-.3.33-.45l.07-.11a33.83,33.83,0,0,0,2-3.57l.05-.12c.06-.13.11-.28.17-.4.36-.8.71-1.6,1-2.44.15-.42.28-.86.42-1.29.09-.25.18-.51.26-.77s.16-.45.23-.69c.25-.86.48-1.75.69-2.66.07-.32.13-.65.2-1l.12-.62c.07-.32.14-.63.19-1,.15-.81.27-1.64.38-2.49.05-.47.1-.95.14-1.43,0-.16,0-.32.05-.49s0-.39.07-.59q.09-1.21.15-2.46t.06-2.52v-.15L955,556C955,555.18,955,554.4,955,553.61Z"/><path class="cls-7" d="M20.5,1089.3c0,4.62,3,9.23,9.12,12.75L343.69,1280.6c.73.42,1.48.82,2.27,1.18.25.13.53.23.8.35.46.21.91.42,1.38.61l.17,0c1.07.42,2.18.79,3.32,1.12l.26.09c.26.08.53.13.8.2.63.17,1.27.33,1.92.47.17,0,.33.09.5.12l.78.14c.54.1,1.09.2,1.63.28l.65.12.74.08,1.54.17.73.08.7,0c.52,0,1,.06,1.56.08.26,0,.52,0,.78,0h.64c.56,0,1.13,0,1.69,0h.84c.17,0,.33,0,.5,0,.7,0,1.39-.09,2.08-.14.28,0,.57,0,.85-.06l.26,0c1.18-.12,2.35-.28,3.52-.49l.16,0c.34-.06.66-.15,1-.21.57-.12,1.15-.23,1.71-.37.41-.09.81-.22,1.21-.33s1.07-.29,1.6-.45l.34-.1.55-.2c.82-.29,1.63-.6,2.43-.92l.88-.38a31.71,31.71,0,0,0,2.91-1.48L796.22,1043l.37-.22c.29-.17.53-.36.8-.54s.76-.48,1.11-.73.58-.46.87-.69.65-.52,1-.78a1.46,1.46,0,0,1,.19-.16,14.47,14.47,0,0,0,1.1-1.12c.08-.08.14-.16.21-.24.21-.23.42-.46.6-.7s.14-.21.22-.31q.39-.54.72-1.08c.1-.15.22-.3.31-.46a2.4,2.4,0,0,1,.11-.23c.17-.32.31-.64.45-1s.19-.38.26-.56,0-.13,0-.2c.11-.3.19-.61.27-.92s.14-.42.18-.62c0,0,0-.11,0-.17.06-.32.08-.65.11-1s.07-.42.07-.63,0-.18,0-.27l.11-42.13c0,.13,0,.25,0,.37v-.05a5.93,5.93,0,0,0,0-.73c0-.13,0-.25,0-.38s-.06-.38-.09-.58-.05-.44-.1-.67a2.51,2.51,0,0,0,0-.27,6.61,6.61,0,0,0-.22-.76c-.06-.19-.1-.38-.17-.57a.83.83,0,0,0,0-.15,12.67,12.67,0,0,0-.54-1.2,1.89,1.89,0,0,0-.09-.21v0a11.17,11.17,0,0,0-.84-1.39.76.76,0,0,0-.08-.11c-.1-.15-.23-.3-.34-.45s-.4-.54-.62-.81l-.22-.23c-.16-.18-.34-.36-.52-.54s-.34-.38-.53-.56-.26-.22-.38-.34l-.67-.57c-.16-.13-.29-.27-.46-.4s-.38-.27-.56-.4-.54-.4-.82-.59l-.42-.3c-.43-.28-.87-.56-1.33-.82L482.12,797l-.83-.46c-.24-.13-.5-.24-.74-.36-.43-.22-.86-.43-1.31-.63-.15-.07-.3-.16-.46-.22s-.44-.17-.65-.26c-.57-.23-1.13-.45-1.71-.66-.21-.06-.4-.15-.61-.22s-.31-.09-.47-.14c-.85-.27-1.72-.53-2.6-.75l-.51-.15-.14,0c-1.29-.32-2.61-.56-4-.76l-.42-.09-.76-.08c-.52-.07-1-.13-1.55-.18l-1.43-.12-1.57-.08c-.25,0-.5,0-.75,0s-.3,0-.44,0c-1.41,0-2.81,0-4.2.08l-.56.05c-1.29.09-2.57.23-3.85.42l-.48,0-.27.05c-1.13.19-2.25.4-3.35.66l-.49.14c-.93.23-1.83.49-2.73.78-.33.1-.65.21-1,.33-.75.26-1.48.54-2.2.85-.29.12-.6.24-.89.38-1,.44-1.91.91-2.8,1.42L29.6,1034.61c-.67.39-1.29.79-1.89,1.21l-.41.29c-.57.42-1.12.84-1.61,1.28-.05,0-.09.09-.15.13-.29.26-.58.53-.84.79s-.23.26-.35.39-.3.32-.44.49c-.3.34-.57.68-.83,1-.1.15-.21.29-.31.43a13.84,13.84,0,0,0-.9,1.5s0,.11-.07.17a10,10,0,0,0-.49,1.12,1.52,1.52,0,0,0-.06.2c-.11.31-.18.62-.26.92s-.15.54-.2.81-.07.62-.1.94-.06.43-.07.65c0,0,0,.12,0,.17s0,.25,0,.38c0-.11,0-.22,0-.33Zm.33-40.07c-.07-.37-.1-.74-.14-1.1,0,.19,0,.4,0,.59Zm.32,1.25a2.33,2.33,0,0,1,.07.25c0-.11-.06-.22-.09-.33A.24.24,0,0,0,21.15,1050.48Zm1.72,3.44,0,.06a14.37,14.37,0,0,1-1.08-1.83l0,0A13.78,13.78,0,0,0,22.87,1053.92Zm2.91,3.21c-.22-.19-.4-.39-.61-.59l0,0C25.4,1056.76,25.58,1057,25.78,1057.13Zm2.17,1.66-.4-.26h0Zm757.94-79.5a2.78,2.78,0,0,1-.07.48h0A2.78,2.78,0,0,0,785.89,979.29Zm-.12.65a5.51,5.51,0,0,1-.55,1.08h0a5.31,5.31,0,0,0,.55-1.09Zm-.68,1.25a6.19,6.19,0,0,1-.92,1h0a6.25,6.25,0,0,0,.92-1Zm-2.44,2.12a9.25,9.25,0,0,0,1.41-1h0A9.25,9.25,0,0,1,782.65,983.31ZM371.34,1222c-.42.14-.84.28-1.28.39h0C370.5,1222.24,370.92,1222.1,371.34,1222Zm-5.7.89a19.83,19.83,0,0,1-2.19-.11h0a19.83,19.83,0,0,0,2.19.11Zm-2.22-.12a18.39,18.39,0,0,1-2.12-.36h0a18.39,18.39,0,0,0,2.12.36Zm-2.15-.37a13.53,13.53,0,0,1-2-.6h0a13.53,13.53,0,0,0,2,.6Zm-3.81-1.46a13.56,13.56,0,0,0,1.76.83h0A13.56,13.56,0,0,1,357.46,1220.9ZM41.91,1041.31h0a9,9,0,0,0,1.48,1A9,9,0,0,1,41.91,1041.31Zm-1.74-2.55c0-.08,0-.18,0-.26,0,.08,0,.18,0,.26Zm0-2.35h0s0,.07,0,.1S40.15,1036.44,40.17,1036.41Zm0-.13a5.11,5.11,0,0,1,.5-1,5.11,5.11,0,0,0-.5,1Zm1.55-2.25h0a6.89,6.89,0,0,0-.78.86h0A6.89,6.89,0,0,1,41.75,1034Zm1.59-1.17a8.57,8.57,0,0,0-1.32.94h0A8.57,8.57,0,0,1,43.34,1032.86ZM453.77,794.51h0a12.6,12.6,0,0,0-1.61.77A12.6,12.6,0,0,1,453.77,794.51Zm2.17-.69h0c-.24.06-.46.14-.7.21C455.47,794,455.7,793.88,455.94,793.82Zm2.56-.4.6,0-.61,0Zm2.05-.09.24,0-.24,0ZM784,974.83h0a9.25,9.25,0,0,0-1.41-1A9.25,9.25,0,0,1,784,974.83Zm1.11,1.18h0a6.94,6.94,0,0,0-1-1.07h0A6.94,6.94,0,0,1,785.12,976Zm.66,1.25h0a4.84,4.84,0,0,0-.62-1.19h0A4.84,4.84,0,0,1,785.78,977.26Zm19.3,13.12s0,0,0,0c0-.17.06-.34.08-.52,0,.12,0,.25,0,.38A1.21,1.21,0,0,1,805.08,990.38Zm-.41,1.53-.09.2v0c.08-.21.15-.43.21-.64C804.76,991.6,804.72,991.76,804.67,991.91Zm-.92,2,0,0c.13-.24.24-.47.35-.7-.07.16-.14.33-.22.49Zm-1.15,1.72,0,0c.13-.17.24-.34.36-.51a3.39,3.39,0,0,1-.23.34A1.39,1.39,0,0,1,802.6,995.58Zm-1.33,1.52,0,0c.26-.26.51-.52.74-.78l-.09.11-.2.24C801.6,996.8,801.42,997,801.27,997.1Zm-1,1,.23-.2,0,.06A1.24,1.24,0,0,0,800.26,998.07Zm-1.64,1.32-.1.07.2-.14ZM374.71,1242.93h0c.76-.13,1.51-.3,2.25-.47l-1,.22C375.49,1242.77,375.11,1242.86,374.71,1242.93Zm-26.44-2.33h0l.23.09-.07,0Zm-2.44-1.07h0l.65.31-.41-.18ZM23.13,1054.27a15.12,15.12,0,0,0,1.1,1.35A15.12,15.12,0,0,1,23.13,1054.27Z"/><path class="cls-8" d="M731.25,937.35,473.82,788.46c-4.51-2.61-11.89-2.61-16.37,0L48.63,1026c-4.5,2.6-4.47,6.89,0,9.49l257.43,148.88c4.5,2.62,11.88,2.62,16.37,0L731.3,946.82C735.8,944.21,735.78,940,731.25,937.35Z"/><path class="cls-9" d="M753.89,952.74c0,.32,0,.65-.11,1s-.13.53-.2.79-.16.62-.27.92-.21.5-.31.76a10.33,10.33,0,0,1-.45,1c-.13.24-.28.47-.42.69a12.18,12.18,0,0,1-.73,1.09,12.35,12.35,0,0,1-.81,1l-.2.24c-.4.43-.84.86-1.31,1.28-.29.26-.62.52-.94.78s-.56.46-.87.68-.73.5-1.11.74-.76.52-1.17.76L336.16,1202a30.46,30.46,0,0,1-2.91,1.47c-.29.14-.59.26-.89.39-.79.32-1.6.63-2.43.91l-.88.31-1.6.46-1.21.32c-.56.14-1.14.25-1.72.37l-1.16.24c-1.15.2-2.33.36-3.51.48l-1.1.1c-.69,0-1.39.1-2.09.13l-1.34,0c-.56,0-1.13,0-1.69,0l-1.42,0-1.57-.08c-.47,0-.95-.07-1.42-.12l-1.54-.17-1.39-.2c-.55-.09-1.09-.18-1.64-.29s-.85-.16-1.27-.26c-.66-.14-1.29-.29-1.93-.47l-1.05-.28c-1.14-.33-2.25-.7-3.32-1.12-.53-.21-1-.43-1.55-.66-.27-.12-.55-.22-.81-.35-.78-.36-1.53-.76-2.26-1.18L35,1053.11c-6.09-3.52-9.13-8.14-9.12-12.75l-.12,42.12c0,4.61,3,9.23,9.12,12.75l257.43,148.89c.73.41,1.48.81,2.26,1.17.26.13.54.23.81.35.46.21.91.42,1.38.61a.85.85,0,0,1,.17.06c1.08.42,2.18.79,3.32,1.11a2.67,2.67,0,0,0,.26.09c.26.08.53.13.8.2.63.17,1.27.33,1.92.47.16,0,.33.09.5.12s.52.09.78.14c.54.1,1.08.2,1.63.28.22,0,.43.09.65.12l.74.08,1.54.17.73.09c.23,0,.47,0,.7,0l1.56.08.78,0h.64c.56,0,1.13,0,1.69,0H316c.17,0,.33,0,.5,0,.7,0,1.39-.08,2.08-.14.28,0,.57,0,.84-.06l.27,0c1.18-.13,2.36-.29,3.51-.5l.17,0c.34-.06.66-.15,1-.21.58-.12,1.15-.23,1.72-.36l1.21-.33c.54-.15,1.07-.29,1.6-.46l.34-.09c.19-.06.36-.15.55-.21.82-.28,1.63-.59,2.42-.92l.89-.38c1-.46,2-.93,2.91-1.47l408.83-237.59.37-.22c.29-.17.53-.35.8-.53s.76-.49,1.11-.75.58-.45.87-.68.65-.51,1-.78l.19-.16c.39-.36.76-.74,1.11-1.12l.2-.24c.21-.23.42-.46.6-.7s.14-.21.21-.31c.27-.36.51-.72.73-1.08.1-.15.22-.3.31-.45a2.44,2.44,0,0,0,.1-.24,10.48,10.48,0,0,0,.46-1c.08-.19.19-.37.26-.56a1.39,1.39,0,0,1,.06-.19c.1-.31.18-.62.26-.92s.14-.42.18-.63c0,0,0-.11,0-.16.06-.33.08-.65.11-1s.07-.42.07-.63,0-.18,0-.28l.12-42.12C754,952.14,753.92,952.44,753.89,952.74Z"/><path class="cls-10" d="M753.93,952.63c0-.15,0-.32,0-.48s0-.49,0-.73,0-.25,0-.37-.06-.39-.09-.59-.05-.44-.1-.66a2.7,2.7,0,0,0,0-.28,7.25,7.25,0,0,0-.22-.76c-.06-.19-.1-.38-.17-.56a.94.94,0,0,0,0-.16c-.15-.4-.34-.8-.53-1.2,0-.07-.06-.14-.1-.21v0a15.56,15.56,0,0,0-.84-1.39.39.39,0,0,0-.08-.1c-.1-.16-.23-.3-.34-.45s-.4-.55-.62-.81l-.22-.23c-.17-.19-.35-.36-.52-.55s-.34-.37-.53-.56l-.39-.33-.66-.58c-.16-.12-.29-.26-.46-.39s-.38-.28-.57-.41-.53-.4-.82-.59l-.41-.3c-.43-.27-.87-.55-1.34-.82L487.42,790.21l-.84-.46c-.24-.13-.49-.24-.74-.36-.43-.22-.86-.43-1.3-.63l-.47-.23c-.21-.09-.44-.16-.65-.24q-.84-.36-1.71-.66l-.6-.24-.47-.13c-.86-.28-1.72-.53-2.61-.75-.17,0-.33-.11-.51-.15l-.13,0c-1.29-.31-2.62-.56-4-.77a2.84,2.84,0,0,1-.42-.08l-.76-.08-1.56-.18c-.47-.05-.95-.08-1.42-.12l-1.58-.09c-.25,0-.5,0-.75,0s-.29,0-.44,0c-1.4,0-2.8,0-4.19.08l-.56,0c-1.3.08-2.58.23-3.85.42l-.48.05-.27,0c-1.14.19-2.25.4-3.35.66l-.49.14c-.93.23-1.84.49-2.73.77l-1,.34c-.75.26-1.48.54-2.19.85-.3.12-.6.24-.9.38-1,.44-1.9.91-2.79,1.42L34.89,1027.78c-.67.4-1.29.8-1.88,1.22l-.42.29c-.57.42-1.11.84-1.61,1.28l-.14.13-.85.79-.35.39-.44.49c-.29.33-.57.69-.82,1l-.32.43a12.85,12.85,0,0,0-.89,1.5l-.08.17c-.18.37-.35.74-.49,1.12a1.52,1.52,0,0,1-.06.2c-.1.31-.18.62-.26.93a7.73,7.73,0,0,0-.19.8c-.06.32-.08.63-.11.94s-.06.43-.07.65c0,.06,0,.12,0,.17s0,.33,0,.49c0,.37,0,.74.1,1.1,0,.19.06.37.1.56s0,.3.08.45.15.5.22.75l.09.29a12.14,12.14,0,0,0,.51,1.25,1.29,1.29,0,0,1,.09.16,13,13,0,0,0,1,1.74.25.25,0,0,1,0,.07h0a17.78,17.78,0,0,0,1.32,1.63l0,0c.28.3.61.6.93.89s.37.39.59.57l0,0a20.92,20.92,0,0,0,1.68,1.33l.07,0c.13.1.29.19.43.28.42.29.84.58,1.31.86l.43.26L292.46,1202c.48.28,1,.55,1.49.8l.53.25c.24.12.49.24.75.35s.41.21.63.3l1.06.43.58.22.24.1c.6.22,1.2.42,1.82.62l.25.08.45.13,1,.29,1.25.32.24,0,.12,0c.49.12,1,.22,1.46.31s.71.14,1.07.2l.17,0,.12,0c.43.08.86.14,1.29.2s.78.11,1.18.15l.19,0,.17,0,.79.08c.35,0,.71.07,1.07.09s.63,0,.94.06h.11l1,0,1,0h1l1.05,0,1.05,0,.57,0h.24l.4,0,1.21-.1,1-.1.35,0,.27,0c.82-.1,1.63-.22,2.44-.36h0c1-.18,2-.38,3.06-.63l.18,0q1.05-.25,2.07-.57l.31-.08h0c.54-.16,1.08-.34,1.62-.53l.8-.3.24-.09.23-.09c.41-.16.81-.32,1.21-.5l.86-.39.16-.08.14-.06c.41-.2.81-.4,1.2-.61l1-.53L745,964.4l.29-.18q.68-.39,1.29-.81l.32-.23.49-.36c.19-.14.4-.28.59-.43s.37-.32.56-.48l.62-.53.3-.26c.18-.17.32-.35.49-.52s.52-.53.75-.8a2.83,2.83,0,0,1,.24-.25c.13-.15.22-.32.34-.48.24-.32.48-.64.69-1,.07-.1.16-.2.23-.31s.14-.29.22-.44c.18-.32.35-.64.5-1,.06-.13.14-.25.19-.38s.09-.28.14-.42c.11-.3.2-.58.29-.88,0-.14.1-.28.14-.43s0-.28.07-.43.09-.52.12-.79S753.92,952.78,753.93,952.63ZM322.48,1184.4a11.78,11.78,0,0,1-1.79.85l-.05,0a14.45,14.45,0,0,1-1.93.59l-.19,0a18.6,18.6,0,0,1-2,.34h-.06a19.77,19.77,0,0,1-2.18.12h0a20.09,20.09,0,0,1-2.19-.12h0c-.72-.09-1.43-.21-2.12-.36h0a17,17,0,0,1-2-.6l-.09,0a11.87,11.87,0,0,1-1.76-.83L48.68,1035.53a9.64,9.64,0,0,1-1.48-1l0,0a7.93,7.93,0,0,1-1-1.15h0a5.13,5.13,0,0,1-.56-1.09c0-.1-.07-.2-.1-.29a3.78,3.78,0,0,1-.16-.93,2.48,2.48,0,0,1,0-.27,4.12,4.12,0,0,1,.18-1.15.93.93,0,0,0,0-.13,4.84,4.84,0,0,1,.58-1.16l.19-.23a6.82,6.82,0,0,1,.78-.86l.26-.24a9.89,9.89,0,0,1,1.32-.93L457.45,788.46a13.28,13.28,0,0,1,1.61-.77l.41-.15a15.87,15.87,0,0,1,1.77-.54l.14,0c.55-.13,1.12-.21,1.7-.29l.71-.08c.46,0,.92-.06,1.38-.08h.68l1.09.06c.4,0,.8.06,1.19.11s1.05.15,1.56.26l.35.07a16.4,16.4,0,0,1,1.8.54l.32.13a13.35,13.35,0,0,1,1.66.78L731.25,937.35a9.22,9.22,0,0,1,1.41,1,.69.69,0,0,0,.13.11,6.94,6.94,0,0,1,1,1.07l0,.06a5.42,5.42,0,0,1,.62,1.19s0,.06,0,.09a4.22,4.22,0,0,1,.2,1.16v.13a4,4,0,0,1-.18,1.13,1.77,1.77,0,0,1-.06.17,5,5,0,0,1-.54,1.08l-.13.17a6.68,6.68,0,0,1-.92,1l-.12.1a8.64,8.64,0,0,1-1.4,1Z"/><path class="cls-9" d="M257.76,1129.13c-5.95,3.44-6,9-.07,12.46l7.54,4.38,4.27-2.47-7.54-4.38c-3.56-2.07-3.55-5.44,0-7.52a14.34,14.34,0,0,1,13,0l7.54,4.37-5.58,3.23,19.07,2.13-3.63-11-5.59,3.23-7.54-4.38C273.35,1125.7,263.71,1125.7,257.76,1129.13Z"/><path class="cls-9" d="M174.38,1077.05l8.09,4.7-15.83,9.14,9.52,5.54,8.31-4.8a10.21,10.21,0,0,1,9.26,0c2.55,1.48,2.53,3.88,0,5.37l-8.31,4.79,9.52,5.53,15.84-9.14,8.09,4.71-7.08-21.67Z"/><path class="cls-9" d="M93.94,1042.4a6.39,6.39,0,0,1,3.12-.74h8.28a5.68,5.68,0,0,1,3.69,1.16h4.25a7.48,7.48,0,0,1,3.5-3.79,18.28,18.28,0,0,1,8.94-2.14c7,0,12.62,3.28,12.59,7.31,0,2-1.44,3.86-3.73,5.18a18.17,18.17,0,0,1-8.94,2.15c-6.15,0-11.27-2.56-12.38-5.93H109a3.24,3.24,0,0,1-.59.41,6.34,6.34,0,0,1-3.1.74H97c-2.43,0-4.39-1.14-4.39-2.54A2.26,2.26,0,0,1,93.94,1042.4Zm31.71,6.7a12.15,12.15,0,0,0,6-1.43c1.54-.89,2.49-2.11,2.5-3.47,0-2.69-3.76-4.89-8.43-4.89a12.12,12.12,0,0,0-6,1.44c-1.54.89-2.49,2.11-2.5,3.45,0,2.71,3.77,4.9,8.43,4.9"/><path class="cls-11" d="M463.28,798.48a6,6,0,0,1,2.34-.38,5.89,5.89,0,0,1,2.4.41l81.86,47.34c-.25.12-.52.22-.75.35-4.6,2.66-4.63,7,0,9.63l47.81,27.79c4.57,2.66,12,2.66,16.62,0,.29-.17.5-.35.76-.53l102.06,59L357.69,1150a5.67,5.67,0,0,1-2.35.4,6,6,0,0,1-2.38-.4L104.64,1006.37Z"/><path class="cls-11" d="M605.19,881.75a13.18,13.18,0,0,0,6.39-1.48c1.26-.73,1.54-1.37,1.54-1.49s-.26-.74-1.5-1.45l-47.8-27.78a13.05,13.05,0,0,0-6.36-1.48,13.25,13.25,0,0,0-6.4,1.48c-1.26.73-1.53,1.37-1.53,1.49s.26.74,1.49,1.45l47.81,27.78A13.05,13.05,0,0,0,605.19,881.75Z"/><path class="cls-10" d="M644.17,1040.63c0-.1,0-.2,0-.3s0-.1,0-.15a.11.11,0,0,1,0,0V1040c0-.11,0-.21,0-.32s0-.21,0-.31h0a2.34,2.34,0,0,1,.05-.3,3.4,3.4,0,0,1,.07-.34s0-.07,0-.11a.25.25,0,0,0,0-.07.83.83,0,0,1,0-.15c0-.11,0-.22.08-.34a2.17,2.17,0,0,0,.07-.24s0,0,0,0v0l.11-.33c0-.11.07-.22.11-.33l0,0s0,0,0,0l.08-.21.12-.3.09-.23a.05.05,0,0,0,0,0l0,0c.05-.1.09-.21.14-.31l.16-.33,0-.06,0-.06c0-.09.09-.18.14-.26l.18-.33.1-.17,0-.06.18-.28.25-.41a.25.25,0,0,0,0-.07l.41-.57c.09-.13.19-.25.28-.37l.24-.29h0l.24-.29a3.33,3.33,0,0,0,.25-.28l0,0,0,0,.18-.19.27-.27.08-.07.07-.06.13-.12.28-.25.13-.1.06-.06.09-.07a2.55,2.55,0,0,1,.28-.21l.21-.15,0,0,0,0,.27-.18.27-.16.06,0,36.72-21.2.2-.12.27-.13.17-.08,0,0,.05,0,.26-.11.26-.1h.08a.85.85,0,0,1,.17-.06l.26-.07.13,0,0,0h.08l.28-.05h.91a2.2,2.2,0,0,1,.37.06h.08l.37.11h0a3.12,3.12,0,0,1,.49.23l6.32,3.67a2.75,2.75,0,0,0-.49-.23l-.38-.11-.08,0-.48-.06H696l-.53.08h-.05a3.92,3.92,0,0,0-.56.16h0l-.61.24a.05.05,0,0,1,0,0l-.63.33-36.72,21.2c-.21.13-.42.26-.63.41,0,0,0,0,0,0a5.79,5.79,0,0,0-.58.43l-.07,0-.53.47-.07.06c-.18.17-.35.35-.52.53l0,0-.54.61h0c-.18.21-.35.44-.52.66h0a7.07,7.07,0,0,0-.44.63c-.09.13-.18.27-.26.41s-.15.23-.21.34l-.1.17c-.11.2-.22.4-.32.6l0,.06c-.12.24-.24.49-.35.74,0,0,0,0,0,0-.11.25-.21.49-.3.74,0,0,0,0,0,0-.09.25-.18.5-.25.75a.08.08,0,0,1,0,0c-.07.25-.13.49-.19.73a.25.25,0,0,1,0,.07c0,.25-.1.5-.14.75h0q-.06.38-.09.75s0,0,0,.06c0,.25,0,.49,0,.74a5.37,5.37,0,0,0,0,.7v0a5.4,5.4,0,0,0,.09.6s0,0,0,.08.09.35.14.52l0,.09a3.66,3.66,0,0,0,.18.46s0,0,0,.05a3.37,3.37,0,0,0,.25.46,3.93,3.93,0,0,0,.44.55l.12.11a3.65,3.65,0,0,0,.54.41L646,1045a2.65,2.65,0,0,1-.54-.41l-.12-.11a3,3,0,0,1-.44-.55h0c-.08-.13-.16-.28-.24-.43h0a.14.14,0,0,1,0-.06,2.55,2.55,0,0,1-.13-.29c0-.05,0-.1,0-.16l0-.09,0-.09a3,3,0,0,1-.08-.32l0-.12s0,0,0-.08l0-.11c0-.1,0-.2,0-.3s0-.12,0-.18a.13.13,0,0,0,0-.06v-.07c0-.1,0-.2,0-.3s0-.21,0-.31v-.31Z"/><path class="cls-12" d="M656.83,1033.61a14,14,0,0,0-6.34,11c0,4,2.87,5.66,6.38,3.63l36.72-21.2a14,14,0,0,0,6.35-11c0-4-2.87-5.65-6.39-3.63Z"/><path class="cls-11" d="M135,1135.93a11,11,0,0,1-5-8.63c0-3.16,2.25-4.44,5-2.85l28.82,16.64a11,11,0,0,1,5,8.62c0,3.16-2.25,4.45-5,2.85Z"/><path class="cls-8" d="M134,1135.22a10.54,10.54,0,0,1-.92-.86v0a10.1,10.1,0,0,1-.84-1h0a13.26,13.26,0,0,1-.73-1.11l0-.06a12.55,12.55,0,0,1-.58-1.16h0a9.58,9.58,0,0,1-.45-1.23h0a9.82,9.82,0,0,1-.28-1.23h0a7.26,7.26,0,0,1-.1-1.22,6,6,0,0,1,.1-1.08s0,0,0,0a3.79,3.79,0,0,1,.29-.88h0a2.71,2.71,0,0,1,.38-.59c.05,0,.09-.12.14-.17a2.64,2.64,0,0,1,.55-.45h0a3.54,3.54,0,0,1,3.49.34c0,.18,0,.38,0,.57a.09.09,0,0,0,0,0,5.93,5.93,0,0,0,.07.59h0c0,.2.07.4.11.59l0,.06q.06.29.15.57a.06.06,0,0,1,0,0c.06.19.13.39.2.59,0,0,0,0,0,0,.08.19.15.39.24.58v0c.08.19.17.39.27.58l0,0c.08.15.16.31.25.46l.07.13c0,.09.11.18.17.27a3.45,3.45,0,0,0,.2.32c.11.17.23.34.35.5h0c.13.18.26.35.41.52h0l.42.47,0,0,.41.41,0,0c.14.13.28.26.42.37l0,0c.15.12.3.24.46.35h0c.16.12.33.22.5.33l28.81,16.63.05,0h0a3.48,3.48,0,0,1-1.46,3.2l0,0a2.58,2.58,0,0,1-.72.26h0a2.54,2.54,0,0,1-.83,0h0a4.12,4.12,0,0,1-.92-.2h0a5.84,5.84,0,0,1-1-.46h0L135,1135.93a7.23,7.23,0,0,1-1-.7Z"/><g class="cls-13"><path class="cls-14" d="M270.44,921.71c-63.61,36.72-63.93,96.26-.73,133s166,36.74,229.59,0,63.95-96.27.75-133S334.05,885,270.44,921.71Z"/></g><path class="cls-8" d="M334.43,513c-2.52-37.91-10.32-75.69-7.57-113.59.21-2.84.53-5.83,2.18-8.14,1.92-2.69,5.24-3.93,8.38-5A247,247,0,0,1,391.05,375l110-13.4c13,15.72,19.85,35.71,22.9,55.85s2.5,40.62,2,61q-1.47,63.82-1.67,127.67c-.1,32.24,0,64.6,4.25,96.57a863.07,863.07,0,0,0-124.18-49c-23.35-7.19-47.75-13.44-72-10.28C336.3,600.49,337.3,555.94,334.43,513Z"/><path class="cls-5" d="M189.92,794.32c27.88-2.25,52.55-21.31,66.79-45.39s20-52.6,20-80.58c0-40.31,28.32-60.68,54.6-76.16l.45,9.25q3,45.87,3,91.88c0,17.08-.35,34.45-5.49,50.75-7.74,24.51-25.9,44.75-47.18,59.17-15.6,10.58-32.21,21.82-49.59,30.23A20.79,20.79,0,0,1,204.75,824l-12.7-25.83C200.78,806.56,191.34,795.46,189.92,794.32Z"/><path class="cls-15" d="M518.91,961.46c-.62,7.92-1,15.85-1.28,23.79-2.84,16.89-15.46,33.35-37.86,46.29-51.07,29.48-133.58,29.47-184.31,0-25.36-14.74-38-34.06-37.88-53.37h0L267,838.82A311.91,311.91,0,0,1,273,768.37L278.86,671a98.66,98.66,0,0,1,10.05-27.74l7.78-14.34a98.75,98.75,0,0,1,86.79-51.64H442.1a98.74,98.74,0,0,1,98.45,106.42Z"/><path class="cls-5" d="M278.86,671a98.66,98.66,0,0,1,10.05-27.74l7.78-14.34a98.75,98.75,0,0,1,86.79-51.64h12.76l-29.9,150.39v324.89c-26-2.46-50.9-9.43-70.88-21-25.36-14.74-38-34.06-37.88-53.37h0L267,838.82A311.91,311.91,0,0,1,273,768.37Z"/><path class="cls-16" d="M344.09,778.65c3.94-.93,7.13-2.85,7.23-6.88.09-3.43,0-6.88,0-10.3V727.68l-18.76-69.17,35.33-79.94a99.47,99.47,0,0,1,15.59-1.28h12.76l-29.9,150.39v43l2.23,3.45a70.89,70.89,0,0,0,7.61,10c9.65,10.34,24,14.37,37.76,14.13,14.44-.25,26.43-5.55,39.08-12.2q5.87-3.08,11.73-6.2c1.31-.69,4.71-1.71,5.6-3,0,0-1,1.38-2.92,3.75l-.73.86a85,85,0,0,1-7.58,8.17,66.2,66.2,0,0,1-31.19,16.54c-12.7,2.65-25.14-.75-37.79-1.54a147.67,147.67,0,0,0-18.58.16c-1.71.11-3.47.26-5.22.31v247.39c-5.06-.47-10.07-1.18-15-2v-260c-4-3.14-8.88-5.18-13.64-7.09l-17.55-7.06C327.28,779.25,336.52,780.42,344.09,778.65Z"/><path class="cls-7" d="M499.49,827.44q-.21-32.21-.41-64.41c-.08-12.83-.17-25.77-3-38.29-3.75-16.56-12.13-31.68-21-46.16a635.12,635.12,0,0,0-77-101.29H442.1c27.46,0,32.86,19.65,51.54,39.78s49.05,39.14,46.91,66.64L518.91,961.46c-.62,7.92-1,15.85-1.28,23.79-2.84,16.89-15.46,33.35-37.86,46.29a150,150,0,0,1-28.38,12.37c34.93-40.28,49.43-58.1,49.08-113,0-5.51-44.54,10.6-149.15-47.26-16.66-9.21-27.26-52.29-39.43-66.93C374.31,822,448.24,869.69,499.49,827.44Z"/><polygon class="cls-17" points="371.87 564.07 446.38 572.62 435.19 625.59 352.47 628.04 371.87 564.07"/><polygon class="cls-18" points="450.2 584.98 370.62 601.29 366.34 727.68 450.2 584.98"/><path class="cls-19" d="M357.3,836.5a8.85,8.85,0,1,0,8.85-8.86A8.85,8.85,0,0,0,357.3,836.5Z"/><path class="cls-15" d="M454.56,611.91a41.21,41.21,0,0,1,66.63,4.52c32.2,51.51,74.64,171.64,51.4,233.81-9.33,25-29.48,45.28-53.52,56.79-34,16.29-58.2,14.13-93.23,2a230.41,230.41,0,0,1-52.74-26.58c-4.72-3.17-40-26.13-38.36-32.05l13.72-50.9c-1.44,5.54,53.87,27.18,59.4,29.58,23.81,10.36,68.07,37.18,89.28,10,4.29-5.5,5.35-12.84,5.44-19.81.5-35.9-19.9-126.49-45.45-151.81A41.14,41.14,0,0,1,454.56,611.91Z"/><g class="cls-13"><path class="cls-20" d="M460.66,654.39c25.55,25.33,45.95,115.91,45.45,151.81-.08,5.91-.87,12.08-3.73,17.18.11-1.37.18-2.74.2-4.09.5-35.9-19.9-126.49-45.45-151.81a41.09,41.09,0,0,1-8.37-46.33A41,41,0,0,0,460.66,654.39Z"/><path class="cls-20" d="M334.74,850.43l3.53-13.09,10.19-37.81c-1,3.72,23.74,14.73,41.71,22.28l-19.59,43.53c2.88,1.94,5.1,3.41,6.05,4q8.56,5.73,17.61,10.76l42.42-37.9a132.45,132.45,0,0,0,20.54,6.87,104,104,0,0,1-26.31,47.36c34.2,11.62,58.18,13.51,91.71-2.54,24-11.51,44.18-31.82,53.52-56.79.38-1,.7-2,1-3.07a106.44,106.44,0,0,1-4.58,16.16c-9.33,25-29.48,45.28-53.52,56.79-34,16.29-58.2,14.13-93.23,2-2.15-.74-4.29-1.53-6.42-2.35h0q-4.41-1.69-8.74-3.59l-1.21-.54q-3.76-1.67-7.45-3.46l-1.2-.58q-8.61-4.26-16.85-9.2h0c-3.67-2.21-7.3-4.48-10.85-6.86-1.27-.85-4.76-3.15-9.12-6.14l-1.53-1.06-1.25-.86-1.93-1.35-1.06-.75-3-2.17-.65-.47L352,867.83l-.95-.71-2.35-1.79-.77-.59c-1-.79-2-1.58-3-2.36l-.29-.24c-.83-.67-1.62-1.35-2.38-2l-.71-.63c-.63-.56-1.22-1.1-1.79-1.63l-.59-.56c-.7-.69-1.36-1.36-1.92-2l-.11-.13a19.34,19.34,0,0,1-1.29-1.62c-.12-.16-.21-.32-.31-.47A8,8,0,0,1,335,852a3.69,3.69,0,0,1-.17-.42A2.2,2.2,0,0,1,334.74,850.43Z"/></g><polygon class="cls-16" points="474.03 601.29 489.28 611 459.38 622.45 471.48 660.17 366.34 727.68 450.2 605.92 474.03 601.29"/><polygon class="cls-16" points="341.65 596.06 326.92 601.29 337.13 609.3 309.64 644.33 366.34 727.68 352.47 604.41 341.65 596.06"/><path class="cls-16" d="M312.05,799.3c1.26-16,4.74-30.82-.55-46.47a74.86,74.86,0,0,1,1.76-51.5,71.54,71.54,0,0,0,5.07-26.46V664.48a162.19,162.19,0,0,1-5,23.07c-4.58,15.53-15.29,27.64-13.46,45a99.39,99.39,0,0,1-13.25,61.75Z"/><path class="cls-6" d="M435,834.93l19,3a104.07,104.07,0,0,1-57.54,75.38l-7.79,3.72L372.9,890.39Z"/><path class="cls-21" d="M358.31,873.09a15,15,0,0,1,4.75,1.62l4.46,5.26c-3.14,1.78-5.9,6.62-7.59,9.61-3.51,6.23-4.06,13.26,4,15.65s17.13,1.32,25.1-1.27c17.82-5.8,33.12-14.17,41.86-31.61,3.68-7.36,9.52-16,7.5-24.52l-.15-.59c-1.71-6-5.82-10.89-12.26-14.49l-2-1.08a41,41,0,0,0-3.84-1.86L407.31,822c-4.2-2.78-34.22-7.6-36-2.61.87.46,1.76.94,2.65,1.44l-.4.89.09,2.76a9.5,9.5,0,0,1-4.72.58,84.13,84.13,0,0,1-7.35,12.35c3.63,1.58,5.89,2.75,6.72,3.47a4.48,4.48,0,0,1,1.2,4.06l-.34.28a2.55,2.55,0,0,1-.77,1.77c-.4.34-2.43,0-6-1.09-2.2-.81-4.08-1.46-5.8-2q-2.88,3.42-6,6.59c-1.11,1.12-2.31,2.29-3.55,3.48a36.62,36.62,0,0,1,8.7,2.11C358.94,857.15,354.91,872.53,358.31,873.09Zm37.25-42.25c-4.6-3.6-8.18-4-10.68-1.14Q388.65,825.43,395.56,830.84Z"/><path class="cls-21" d="M237.21,818l.5.74c-1.14,1-2.33,1.87-3.39,2.73a74.69,74.69,0,0,1-8.84,5.91c-5.53,1-9.59,2.39-12.27,3.93a3.73,3.73,0,0,0,.91,2.33c1.79,2.29,5.45,3.46,11.16,3.65,7.89,0,16.05-3.38,24.44-9.84,8.54-7,14.54-12.11,17.87-15.33l10.26-9.17c.51-.29,1.52-1.08,3.15-2.32l1.67-1.32c5.2-4.33,8.1-9.39,8.64-15.11a35.71,35.71,0,0,0-.83-9.73c-1.26-.37-3-2.15-5.21-5.26l-10-13c-3.1-4.14-5-6.52-6-7-5.08-2.91-13.05-3.46-24-1.87-10.6,1.6-17.74-.25-21.36.67-30.49,7.76-3.45,18-1.93,18.51l-3.14,5.5a13.68,13.68,0,0,1-4,2.25,24.76,24.76,0,0,1-8.22,3.05,48,48,0,0,1,2.47,7.74c.25,1.09.48,2.23.71,3.39,5.19-.88,8.83-1.57,10.92-2.15a23.4,23.4,0,0,1-5.35,3.79,27.73,27.73,0,0,1-4.85,2.39,71.87,71.87,0,0,1,1,11.85c.35-.13.68-.26,1-.4,2-1,5.61-2.85,10.6-5.8,3.06-1.56,4.84-2.24,5.26-2a2.37,2.37,0,0,1,1,1.47l.35.2a4.12,4.12,0,0,1-.4,3.87c-1.19,1.49-6.63,5.22-16.44,11.24l-2.56.83c-.18.69-.34,1.41-.58,2.08a31.89,31.89,0,0,1-4.69,8.51c4.83,0,10.29-1.34,16.45-4.2,8-3.78,13.07-5.3,15.39-4.56Zm9.9-8.4c2.49,1.19,5.3,0,8.4-3.49C252.41,809.59,249.6,810.75,247.11,809.56Z"/><polygon class="cls-21" points="238.72 809.72 238.59 809.17 238.25 808.98 238.72 809.72"/><path class="cls-8" d="M179.11,799.6l83.94-48.45a12.41,12.41,0,0,1,11.26,0l141.42,82.18c3.09,1.79,3.08,4.73,0,6.52l-83.94,48.47a12.48,12.48,0,0,1-11.26,0L179.07,806.13C176,804.34,176,801.39,179.11,799.6Z"/><path class="cls-22" d="M280.43,746.68l.1,0-.85-.29Z"/><path class="cls-22" d="M164.67,822.94h0c.2.13.38.27.59.4Z"/><path class="cls-22" d="M167.73,797.56h0l-.85.51C167.13,797.92,167.47,797.7,167.73,797.56Z"/><path class="cls-22" d="M157.79,812.27v.2s0,0,0,0Z"/><path class="cls-12" d="M157.79,812.82v-.2a10.69,10.69,0,0,0,.07,1.12c0,.06,0,.13,0,.19a.49.49,0,0,0,0,.12.3.3,0,0,0,0,.1.25.25,0,0,1,0,.08s0,0,0,.06a.19.19,0,0,1,0,.08v-.06a.32.32,0,0,0,0,.09c0,.16.06.32.1.49l.12.39.06.23s0,.09,0,.13l.06.19,0,0h0l0,.09,0,.07.19.46c.06.12.11.25.17.38a.3.3,0,0,1,0,.08l.13.22a1.79,1.79,0,0,0,.12.24l-.07-.15h0c.05.11.11.22.17.33l.33.52c.06.08.1.16.15.23a2,2,0,0,0,.17.23l.28.38,0,.06a.09.09,0,0,1,0,0l.38.45c.08.1.15.2.24.3l.09.1a13.29,13.29,0,0,0,1,1l-.17-.19.4.39c.22.2.47.38.71.58s.55.45.85.67l.82.55.19.12s0,0,0,0c.32.21.63.43,1,.63L307,905.73a30.11,30.11,0,0,0,6.14,2.66l-.16,0a1.39,1.39,0,0,0,.19.06c1.12.35,2.27.64,3.45.9l.73.15.74.15h-.08l.15,0c.94.17,1.9.31,2.86.41l.27,0,.19,0h0l.39,0,.24,0c.67,0,1.33.09,2,.12l.35,0h.4l.36,0h2l.16,0h.15l.6,0,.55,0,.23,0h.19l.48,0h.05l.21,0H330l.58-.06.53-.05.57-.07.59-.06.29,0h0l0,0,.11,0,.61-.1.58-.09.11,0H334l.17,0,.81-.16.2,0,0,0,.14,0,.34-.07.2,0,.19,0,.44-.11.44-.1.49-.14c.15,0,.31-.07.46-.12H338l.06,0h0l.3-.09.48-.15.27-.07.08,0c.11,0,.21-.08.32-.12l.06,0,.61-.2.35-.12a2.18,2.18,0,0,1,.23-.09l.31-.12.22-.08h0l.28-.13.18-.06h0l.22-.11.32-.12.17-.09.29-.13.17-.06.11-.06.14-.07a.19.19,0,0,0,.08,0c.66-.32,1.3-.65,1.92-1l83.94-48.46c5.31-3.07,8-7.1,8-11.12,0-.43,0-1-.08-1.43a15.1,15.1,0,0,0-.41-2.23l-.45-1.38c-.05-.11-.12-.26-.17-.39a13.14,13.14,0,0,0-.77-1.65h0l-.78-1.28c-.2-.3-.44-.64-.71-1l-.14-.17c-.14-.18-.29-.37-.46-.55L433,836l-.1-.1-.15-.17-.17-.19c-.14-.15-.29-.31-.45-.45l-.21-.24a.27.27,0,0,1-.08-.07l-.12-.1c-.16-.16-.34-.31-.51-.47l-.54-.47-.41-.36-.38-.27-.26-.19-.7-.53-.3-.2-.2-.12c-.42-.27-.85-.55-1.23-.77h0l-14.14-8.22-14.14-8.22-14.14-8.22-14.14-8.22-14.14-8.22L342.37,782l-14.14-8.22-14.14-8.22L300,757.32l-14.14-8.22h0l-1.54-.83-.77-.36-.78-.35-.29-.13,0,0-1.29-.49-.29-.11-.28-.09h0l-.32-.1-.09,0-1.14-.36-1.67-.44c-.48-.12-1.64-.38-3.25-.61h0l-.11,0h-.06l-.15,0-.14,0-.27,0,.24,0h-.09l-.76-.09-.56,0-.16,0a37.12,37.12,0,0,0-6.5,0h-.27l-.16,0c-.37,0-.73.08-1.1.13l-.35,0-.32,0-.5.08-.23,0-.16,0h-.06l-.36.07h-.09l-.17,0,.13,0-.54.11-.69.14-.42.09-1.44.38-.14,0-.15,0-.54.18-.92.28-.13.05-.06,0-.58.21.46-.17-.28.11-.16.06-1.21.46-.89.4-.24.11-.46.21c-.51.26-1.18.61-1.7.9h0l-.06,0-8.39,4.85-8.4,4.84-8.39,4.84-8.39,4.85-8.4,4.85-8.39,4.85-8.4,4.84-8.39,4.84-8.4,4.85-8.38,4.85h0l-1.46.91-.5.36c-.39.27-.79.55-1.18.87h0c-.4.32-.81.66-1.23,1.06a18.83,18.83,0,0,0-1.35,1.39l-.16.17-.16.2c-.16.19-.32.39-.47.59l-.33.41-.27.41a.22.22,0,0,0-.05.08s0,0,0,0c-.17.23-.33.47-.5.73a12.59,12.59,0,0,0-1,1.85l0,.07s0,.11-.05.15-.08.2-.13.3a1.09,1.09,0,0,0,.05-.14l-.06.18c-.11.29-.23.61-.34.94l-.09.25-.13.44c-.12.45-.21.89-.28,1.31l0,.09s0,.1,0,.15c0,.22-.06.44-.09.64a2.11,2.11,0,0,1,0,.26l0-.15c0,.15,0,.3,0,.45,0-.1,0-.2,0-.3l0,.14v.41c0,.27,0,.51,0,.73v-.07a.45.45,0,0,0,0,.11C157.78,812.66,157.79,812.74,157.79,812.82Zm257.9,27-83.94,48.47a12.48,12.48,0,0,1-11.26,0L179.07,806.13c-3.1-1.79-3.08-4.74,0-6.53h0l83.94-48.45a12.41,12.41,0,0,1,11.26,0l141.42,82.18h0C418.82,835.12,418.81,838.06,415.69,839.85Z"/><path class="cls-9" d="M157.78,812.58v2.65c0,.08,0,.18,0,.28a8.34,8.34,0,0,0,.06.91c0,.19.06.41.09.62,0-.07,0-.13,0-.19l.05.26c0,.3.1.58.16.88l.05.27.1.39.25.77c0-.12-.09-.23-.12-.35l.16.48.16.48.08.18.08.23c0,.08.08.17.12.25a10.14,10.14,0,0,0,.53,1.12l-.07-.11.08.13a2.53,2.53,0,0,0,.12.23,0,0,0,0,0,0,0l.78,1.28c.2.31.45.64.71,1a1.83,1.83,0,0,1,.13.16c.15.19.3.37.47.56l.06.08.1.11.14.16.18.19.44.45.22.24.09.07.11.1c.16.16.34.31.51.46l.54.48.41.36.38.27.26.2.7.52.3.19a1.37,1.37,0,0,0,.2.13c.41.27.85.55,1.23.78h0l14.14,8.21,14.14,8.22,14.14,8.22,14.14,8.22L238.35,871l14.14,8.22,14.14,8.21,14.14,8.22,14.14,8.22L309.05,912l1.54.82.13.07c.59.3.93.45,1.71.78h0q.6.25,1.29.51l.29.1.57.19.08,0,1.15.36,1.67.44a28.75,28.75,0,0,0,3.34.62l.11,0h.12l.28,0c.25,0,.51.06.78.09l.55,0h.17a36.08,36.08,0,0,0,6.49,0l.18,0h.09l.16,0c.37,0,.73-.08,1.09-.13l.36,0,.32,0,.49-.08.25,0,.21,0,.45-.06.58-.13.69-.15.42-.08,1.44-.37.15,0,.14,0,1.65-.53.4-.15.16-.06c.42-.15.85-.31,1.21-.46l.89-.4.24-.11.46-.21c.54-.28,1.26-.64,1.79-1l8.39-4.84,8.4-4.84,8.39-4.86,8.39-4.84,8.4-4.85,8.39-4.84,8.4-4.85,8.39-4.84,8.39-4.85,8.4-4.85h0a24.42,24.42,0,0,0,4.39-3.21,17.85,17.85,0,0,0,2.72-3.14,1,1,0,0,1,.08-.11l.51-.76a14.85,14.85,0,0,0,1.75-4,14.52,14.52,0,0,0,.51-3.77v-2.41c0,4-2.65,8.05-8,11.12l-83.94,48.46c-.64.37-1.3.71-2,1-.23.1-.47.19-.7.3-.45.2-.89.4-1.36.58-.93.36-1.9.68-2.89,1l-.92.25c-.56.14-1.11.28-1.68.4-.37.09-.75.16-1.12.23l-1.43.25-1.2.17-1.35.14c-.41,0-.83.08-1.25.11s-.9.06-1.36.07l-1.24,0c-.49,0-1,0-1.47,0l-1.18,0c-.6,0-1.21-.07-1.81-.12l-1-.08c-1-.11-2.05-.25-3.06-.43l-1-.2c-.5-.11-1-.2-1.48-.32s-.72-.19-1.07-.29-.93-.25-1.39-.39l-.77-.27c-.72-.24-1.43-.51-2.12-.8l-.77-.33a27.44,27.44,0,0,1-2.54-1.29L165.62,823.55h0c-.36-.21-.69-.44-1-.66l-1-.64c-.27-.2-.51-.4-.76-.6s-.57-.45-.83-.68-.78-.74-1.13-1.12l-.18-.21c-.26-.29-.49-.59-.71-.89s-.44-.62-.64-.94-.25-.4-.36-.6-.27-.56-.39-.84-.2-.43-.28-.65-.16-.54-.23-.81-.13-.46-.17-.69a8.2,8.2,0,0,1-.1-.85C157.83,813.11,157.79,812.85,157.78,812.58Zm8.9,16.46,0,.05,0-.05Zm-7.8-8.65,0,0a.19.19,0,0,1,0,.07A.42.42,0,0,0,158.88,820.39Z"/><path class="cls-5" d="M309,896.73h0a2.84,2.84,0,0,0-1-3.88L174.71,814.69a2.84,2.84,0,0,0-3.88,1h0a2.83,2.83,0,0,0,1,3.88l133.28,78.16A2.85,2.85,0,0,0,309,896.73Z"/><path class="cls-8" d="M179.11,799.6l83.94-48.45a12.41,12.41,0,0,1,11.26,0l141.42,82.18c3.09,1.79,3.08,4.73,0,6.52l-83.94,48.47a12.48,12.48,0,0,1-11.26,0L179.07,806.13C176,804.34,176,801.39,179.11,799.6Z"/><path class="cls-11" d="M310.44,879.12a10.17,10.17,0,0,0,4.95-1.16l83.94-48.47c1.05-.6,1.66-1.36,1.66-2.08s-.59-1.46-1.62-2.06L286.63,760a10.06,10.06,0,0,0-4.93-1.17,10.17,10.17,0,0,0-4.95,1.17l-83.94,48.46c-1.05.61-1.66,1.36-1.66,2.09s.59,1.45,1.62,2.05L305.51,878A10.06,10.06,0,0,0,310.44,879.12Z"/><path class="cls-21" d="M209.67,755c-2.7,5.16-2.81,11.46-3.62,17.26-.6,4.25,2.73,10.73,7.36,10.69,4.34,0,8.28-5.11,10.84-8.15,1.78-2.13,12.61-17.79,11.72-21C234.45,748.38,216.11,742.66,209.67,755Z"/><path class="cls-21" d="M355.19,871.7c3.62-3,10.48-1.66,14.75-1,1.22.2,5.25,1.19,9.72,2.51,4.11,1.22,7.4,2.71,10.19,2.4a27.26,27.26,0,0,0,9,1.47c7.55,0,13.39-2.62,17.57-6.68.29.29.34.64,0,1.13-4,5.1-9.08,8.61-14,12.66-3.05,2.52-5.82,5.34-8.92,7.81-5.59,4.43-14.57,10.62-21.56,5.41-5.09-3.79-10.45-7.48-15.25-11.69C353.19,882.67,351.34,874.94,355.19,871.7Z"/><path class="cls-23" d="M369.52,611.69a62.16,62.16,0,0,1,13.08-12l10.8-7.84,46.08-4.09-24,50.31c-10.4,4.24-22.38,5.89-34.91,1.19-5.36-2-9.09-4.27-11.62-6.66Z"/><path class="cls-24" d="M442.26,548.28v61.9s-25.69,33-55.05,22,0-26,0-26v-58Z"/><polygon class="cls-6" points="446.38 572.62 366.34 727.68 461.87 649.42 455.97 615.43 493.64 600.18 446.38 572.62"/><polygon class="cls-6" points="371.87 564.07 327.44 589.03 346.06 604.2 321.09 635.02 366.34 727.68 371.87 564.07"/><path class="cls-25" d="M468.47,438.14c-5.4,1.94-90.17-8.82-94.3-12.63s-15.65-10.14-19.6-12.08c-6.38-3.15-13,1.31-18.78,3.79-10.11,4.32-9.44,15.1-9.51,24.57A103.52,103.52,0,0,0,328.57,464c7,34.18,10.31,70.56,29.8,99.49,6.36,9.46,14.58,18,25,22.69,20.18,9.06,44.8,1.4,61.32-13.32s26.49-35.28,35.26-55.58c1.43,3.21,5.86,4.14,9.11,2.8s5.53-4.29,7.43-7.25a76.84,76.84,0,0,0,7.8-15.86c1.84-5.19,3.32-14.07,2.24-19.47C502,454.92,470.86,437.28,468.47,438.14Z"/><path class="cls-21" d="M335.79,417.22c5.77-2.48,12.4-6.94,18.78-3.79,3.95,1.94,15.47,8.25,19.6,12.08s88.9,14.57,94.3,12.63c2.39-.86,33.54,16.78,38,39.31,1.08,5.4-.4,14.28-2.24,19.47a76.84,76.84,0,0,1-7.8,15.86c-1.9,3-4.18,5.91-7.43,7.25s-7.68.41-9.11-2.8c-8.77,20.3-18.75,40.85-35.26,55.58a68.11,68.11,0,0,1-35.14,16.66c10.85-4.6,21.35-10.7,27.78-19.93,8.43-12.09,15.7-28.23,16.73-43a74.16,74.16,0,0,0-.5-15c-1.73-12.88-7.2-25.64-17.11-34a84.17,84.17,0,0,0-11.19-7.57l-56.11-33.63c-5.65-3.38-11.54-6.85-18.09-7.47-11.61-1.09-23.16,8.58-24.11,20.2l-.51-1.22c-.11-2-.16-3.93-.14-5.95C326.35,432.32,325.68,421.54,335.79,417.22Z"/><path class="cls-8" d="M431,333.21a252.69,252.69,0,0,1,37.43,3.48c15.7,2.73,30.13,12.46,37.62,26.66,8.66,16.42,13.25,32.27,13.51,47.67s-.26,26.48-1.85,33.57c-3.83,14.25-7.29,28.32-10.37,42.05l-.64,1v-3.17a14.81,14.81,0,0,0-4.3-10.17c-2.5-2.87-4.93-4.29-7.08-4.29a9,9,0,0,0-2.24.28c-3.46,1.22-6.9,4.48-10.34,10a46.82,46.82,0,0,0-4.23,9c-1.47,4.45-4.24,23.91-8.88,23.22-1.19-6.36-2.14-12.78-2.91-19.2-1.84-15.23-20.06-24.77-32.53-30.15-11.23-4.85-23.06-8.12-34.4-12.69a215.48,215.48,0,0,1-33.2-17c-5-3.09-9.48-6.07-13.47-10.28-3.29-3.48-8.29-8.46-13.55-6.15-4.93,2.17-7.24,7.2-8.16,12.13-1.38,7.45-1.32,14.91-1.21,22.44.12,8-.17,16.24.64,24.18,0-.26-7-6.51-7.72-7.39-3.91-4.58-6.61-9.73-9.26-15.11-9.67-19.73-7.22-33.64-1.48-54.36,4.73-17.08,17.41-29.48,31.56-39.3,18.31-12.72,37.43-24.59,60.3-25.93C413,333.21,422,333,431,333.21Z"/><path class="cls-5" d="M396,490,422.75,500a8.38,8.38,0,0,1,1.07.48,16.18,16.18,0,0,1,5.72,5.37,15.7,15.7,0,0,1,2.89,8.59,18.54,18.54,0,0,1-2.78,10.14l-.26,0c-.31,0-.63.09-.95.11l-.69,0c-.3,0-.61,0-.93,0l-.84,0-.85-.1c-.38-.05-.77-.12-1.16-.19l-.76-.17c-.68-.17-1.38-.36-2.08-.61-.2-.06-.39-.11-.59-.19L409,519.14a16.18,16.18,0,0,1-1.87-.83,21.37,21.37,0,0,1-2.58-1.59c-.28-.2-.55-.44-.83-.65-.56-.44-1.13-.88-1.67-1.37-.15-.14-.28-.28-.43-.41-.67-.64-1.33-1.31-1.95-2l-.18-.19c-.73-.85-1.43-1.73-2.08-2.66l-.08-.11c-.63-.9-1.21-1.84-1.76-2.8l-.12-.21c-.54-1-1-2-1.47-3a1.8,1.8,0,0,0-.08-.21,27.46,27.46,0,0,1-1.05-2.91l-.12-.39a24.78,24.78,0,0,1-.7-3.08,15.26,15.26,0,0,1,.52-7.43A12.29,12.29,0,0,1,396,490Z"/><path class="cls-5" d="M350.82,473.38c7.18,3.7,13.75,12.92,15.07,21.61a14.86,14.86,0,0,1-.55,7.4,6.56,6.56,0,0,1-.76,0l-.34-.06a12.54,12.54,0,0,1-2.22-.61L350.5,497.4a32.06,32.06,0,0,1-3.09-1.37,35.11,35.11,0,0,1-4-2.41c-.43-.3-.85-.66-1.27-1-.86-.65-1.72-1.3-2.55-2-1.06-.93-2.1-1.92-3.1-3l-.19-.21c-1-1.06-2-2.18-2.9-3.34l-.31-.38c-1-1.23-1.9-2.52-2.77-3.84l-.12-.18c-.9-1.36-1.73-2.77-2.5-4.21l-.15-.29q-1.08-2-2-4.16c-.07-.16-.14-.32-.2-.49q-.92-2.21-1.61-4.46a16.38,16.38,0,0,1-.42-1.93c0-.23-.05-.45-.07-.67s0-.29,0-.44l25.65,9.5A16.18,16.18,0,0,1,350.82,473.38Z"/><path class="cls-6" d="M402.08,514.7c-.15-.14-.28-.28-.43-.41-.67-.64-1.33-1.31-1.95-2l-.18-.19c-.73-.85-1.43-1.73-2.08-2.66l-.08-.11c-.63-.9-1.21-1.84-1.76-2.8l-.12-.21c-.54-1-1-2-1.47-3a1.8,1.8,0,0,0-.08-.21,27.46,27.46,0,0,1-1.05-2.91l-.12-.39a24.78,24.78,0,0,1-.7-3.08,15.26,15.26,0,0,1,.52-7.43A12.29,12.29,0,0,1,396,490l1.71.63,17.49,30.78L409,519.14a16.18,16.18,0,0,1-1.87-.83,21.37,21.37,0,0,1-2.58-1.59c-.28-.2-.55-.44-.83-.65C403.19,515.63,402.62,515.19,402.08,514.7Z"/><path class="cls-6" d="M413.29,496.45l15.92,28.15c-.25,0-.51.07-.77.09l-.69,0c-.3,0-.61,0-.93,0l-.84,0-.85-.1c-.38-.05-.77-.12-1.16-.19l-.76-.17c-.68-.17-1.38-.36-2.08-.61-.2-.06-.39-.11-.59-.19l-2.11-.78L401.38,492Z"/><path class="cls-6" d="M333.14,483.72c-1-1.23-1.9-2.52-2.77-3.84l-.12-.17q-1.35-2.06-2.5-4.22l-.15-.29q-1.08-2-2-4.16c-.07-.16-.14-.32-.2-.49q-.92-2.21-1.61-4.46a16.38,16.38,0,0,1-.42-1.93c0-.23-.05-.45-.07-.67s0-.29,0-.44l4.75,1.76,16.89,29.71c-.49-.31-1-.56-1.48-.9s-.85-.66-1.27-1c-.86-.65-1.72-1.3-2.55-2-1.06-.93-2.1-1.92-3.1-3l-.19-.21c-1-1.06-2-2.18-2.9-3.34Z"/><path class="cls-6" d="M343.67,470.6,361,501.32,350.5,497.4c-.59-.22-1.17-.52-1.77-.79l-16.94-30.42Z"/><path class="cls-6" d="M343,521.28c12.9,5.83,53.95,23.38,84.71,25.4a3.83,3.83,0,0,1,3.57,3.28h0a36.83,36.83,0,0,1-10.94,31.47h0A30.19,30.19,0,0,1,394,589.55c-10.55-1.95-24.52-7.32-38-21.08-19.25-19.71-19.59-36.57-18.31-44.4A3.75,3.75,0,0,1,343,521.28Z"/><rect class="cls-6" x="411.26" y="511.84" width="87.67" height="4.89" transform="translate(-231.06 542.54) rotate(-50.85)"/><path class="cls-6" d="M418.24,577.66l66.42-57.15-.58-.11a5.94,5.94,0,0,1-4.15-3.17h0l-65,56.83Z"/><g class="cls-1"><path class="cls-26" d="M433.38,504.56l0,7.69,45.86-24a17.23,17.23,0,0,0,6.92-8.83,23.49,23.49,0,0,1,5.24-8.37Z"/><polygon class="cls-27" points="433.38 504.56 430.19 502.7 430.21 510.39 433.41 512.25 433.38 504.56"/><path class="cls-28" d="M485,471a6.41,6.41,0,0,1,6.41,0l-58.05,33.51-3.19-1.86Z"/></g><rect class="cls-6" x="335.77" y="493.96" width="4.89" height="32.24" transform="translate(-182.03 187.71) rotate(-24.67)"/><path class="cls-29" d="M315.48,468.57a10.29,10.29,0,0,1-.05-1.23q0-.31,0-.63a7.79,7.79,0,0,1,.2-1.11c0-.16.07-.33.12-.48a4.91,4.91,0,0,1,.64-1.32,3.91,3.91,0,0,1,1.07-1l7.84-5.07a3.74,3.74,0,0,0-1.07,1,5,5,0,0,0-.64,1.31c-.05.16-.08.33-.12.49a7.54,7.54,0,0,0-.2,1.11c0,.21,0,.42,0,.63a10.29,10.29,0,0,0,.05,1.23c0,.22,0,.44.07.67a16.38,16.38,0,0,0,.42,1.93q.69,2.25,1.61,4.46c.06.17.13.33.2.49q.9,2.11,2,4.16l.15.29c.77,1.44,1.6,2.85,2.5,4.21l.12.18c.87,1.32,1.8,2.61,2.77,3.84l.31.38c.93,1.16,1.9,2.28,2.9,3.34l.19.21c1,1,2,2,3.1,3,.83.73,1.69,1.38,2.55,2,.42.32.84.68,1.27,1a35.11,35.11,0,0,0,4,2.41,32.06,32.06,0,0,0,3.09,1.37L362,501.68a12.54,12.54,0,0,0,2.22.61l.34.06a9.61,9.61,0,0,0,1.9.12h.2a7.7,7.7,0,0,0,1.77-.31l.13,0a7.12,7.12,0,0,0,1.65-.77l-7.84,5.08-.07,0a6.68,6.68,0,0,1-.7.39,5.84,5.84,0,0,1-.73.29l-.15.05-.13,0c-.16,0-.33.11-.5.15s-.56.1-.85.14l-.41,0h-.21l-.31,0a9.2,9.2,0,0,1-1-.06c-.18,0-.37-.06-.55-.08l-.34-.06-.38-.06a14.78,14.78,0,0,1-1.67-.49l-.17-.06-11.51-4.29a27.13,27.13,0,0,1-3.1-1.37,33.6,33.6,0,0,1-3.95-2.4c-.43-.3-.85-.66-1.28-1-.85-.65-1.71-1.3-2.54-2-.1-.09-.21-.15-.32-.24-.92-.84-1.83-1.71-2.71-2.64l-.07-.07-.19-.21q-.9-.94-1.77-1.95c-.39-.45-.76-.93-1.13-1.4l-.31-.36c-.07-.1-.15-.19-.22-.28-.5-.64-1-1.3-1.45-2s-.74-1.07-1.1-1.62l-.12-.16-.09-.14c-.4-.62-.8-1.26-1.18-1.9s-.75-1.28-1.1-1.92c-.05-.09-.09-.18-.13-.26l-.15-.28c-.24-.47-.5-.94-.73-1.42-.33-.67-.65-1.35-.95-2-.1-.24-.19-.49-.3-.73s-.13-.33-.2-.49-.27-.62-.39-.93c-.3-.78-.58-1.56-.84-2.35-.13-.39-.25-.78-.37-1.18l-.14-.47c-.1-.39-.18-.77-.25-1.15,0-.11,0-.21,0-.32S315.5,468.79,315.48,468.57Z"/><path class="cls-29" d="M371.12,496.91c-.14-.72-.27-1.45-.42-2.15l7.84-5.08c.15.71.28,1.43.41,2.15,1.14,7.49-.81,13.06-4.76,15.62l-7.83,5.08C370.31,510,372.25,504.4,371.12,496.91Z"/><path class="cls-28" d="M318.77,455.75a9.77,9.77,0,0,0-1.76-.12l-.19,0a6.54,6.54,0,0,0-1.63.28l-.12,0a6,6,0,0,0-1.52.71l7.84-5.08.06,0a6.67,6.67,0,0,1,1.32-.63l.13,0,.12,0a4.61,4.61,0,0,1,.46-.13,6.85,6.85,0,0,1,.79-.13,2.48,2.48,0,0,1,.39,0l.19,0h.28a8.25,8.25,0,0,1,1,0l.5.08.32.06.36,0a15.35,15.35,0,0,1,1.58.46l.14.06,26.81,10a23.7,23.7,0,0,1,2.6,1.15,27.59,27.59,0,0,1,3.06,1.87c.3.2.6.43.9.64.72.54,1.43,1.11,2.14,1.72.17.14.36.26.53.42s.31.3.46.44c.35.33.71.67,1.05,1s.48.45.72.7.41.45.61.67l.6.66c.14.17.29.32.44.48.46.55.92,1.11,1.37,1.69l.05.07.12.16c.35.46.7.92,1,1.39s.47.68.7,1l.23.34.15.22c.34.52.67,1.05,1,1.58.15.25.28.51.43.76s.15.27.23.41l.25.43c.29.54.57,1.09.84,1.64.13.25.26.51.38.77l-7.84,5.08c-.45-1-.95-1.91-1.47-2.84-.07-.14-.15-.28-.23-.42-.5-.86-1-1.72-1.57-2.55-.07-.12-.15-.23-.23-.35-.55-.83-1.13-1.63-1.73-2.41l-.12-.16c-.6-.77-1.22-1.52-1.86-2.24l-.6-.66c-.43-.47-.88-.92-1.33-1.37l-1.05-1-1-.87c-.7-.6-1.42-1.17-2.15-1.7-.29-.22-.59-.45-.89-.65a26.7,26.7,0,0,0-3.06-1.87,23.7,23.7,0,0,0-2.6-1.15l-26.81-10a12.67,12.67,0,0,0-2.08-.56A3,3,0,0,0,318.77,455.75Z"/><path class="cls-29" d="M371.43,486.66l-.31-.05a10.8,10.8,0,0,0-1.46-.15h-.17a7.91,7.91,0,0,0-1.63.15l7.84-5.08a4.63,4.63,0,0,1,.65-.1,8.49,8.49,0,0,1,.88-.05h.27c.24,0,.49,0,.74,0s.48.07.72.11l.31.05.17,0a14.81,14.81,0,0,1,1.59.46h0a15.24,15.24,0,0,1,1.92.85,19.32,19.32,0,0,1,2.1,1.25,26.15,26.15,0,0,1,2.08,1.59l-7.84,5.08a21.72,21.72,0,0,0-4.17-2.84,16,16,0,0,0-1.93-.85A13.82,13.82,0,0,0,371.43,486.66Z"/><path class="cls-29" d="M385.83,492.16a7.22,7.22,0,0,1,1.89-1.81l7.84-5.08c-2.9,1.88-4.33,6-3.5,11.45a24.78,24.78,0,0,0,.7,3.08l.12.39a27.46,27.46,0,0,0,1.05,2.91,1.8,1.8,0,0,1,.08.21c.44,1,.93,2,1.47,3l.12.21c.55,1,1.13,1.9,1.76,2.8l.08.11c.65.93,1.35,1.81,2.08,2.66l.18.19c.62.72,1.28,1.39,1.95,2,.15.13.28.27.43.41.54.49,1.11.93,1.67,1.37.28.21.55.45.83.65a21.37,21.37,0,0,0,2.58,1.59,16.18,16.18,0,0,0,1.87.83l11.51,4.28c.2.08.39.13.59.19.7.25,1.4.44,2.08.61l.76.17c.39.07.78.14,1.16.19l.85.1.84,0c.32,0,.63,0,.93,0l.69,0c.32,0,.64-.06.95-.11s.4-.05.6-.1a7.73,7.73,0,0,0,.95-.23,4.1,4.1,0,0,0,.5-.14c.38-.12.74-.26,1.09-.41l.28-.12a9.91,9.91,0,0,0,1.31-.73l-7.83,5.08-.12.08a11.75,11.75,0,0,1-1.16.63l0,0-.29.12c-.29.13-.58.25-.89.36l-.19.05c-.16.06-.33.1-.5.15l-.6.17-.35,0-.6.1-.45.08c-.16,0-.33,0-.49,0s-.46,0-.7,0-.23,0-.35,0l-.58,0c-.27,0-.55,0-.84,0h-.33l-.51-.08c-.39-.06-.77-.11-1.17-.19l-.4-.07c-.12,0-.24-.08-.36-.1-.68-.17-1.37-.37-2.08-.61a3.18,3.18,0,0,1-.33-.1l-.25-.09-11.52-4.28a16.18,16.18,0,0,1-1.87-.83,21.37,21.37,0,0,1-2.58-1.59c-.28-.2-.55-.45-.83-.66-.5-.38-1-.75-1.47-1.17l-.2-.2c-.15-.13-.28-.27-.42-.4-.34-.33-.69-.65-1-1s-.63-.69-.94-1a1.54,1.54,0,0,0-.17-.19l-.11-.12c-.34-.41-.68-.82-1-1.25s-.61-.79-.89-1.19l-.07-.1-.07-.1c-.23-.33-.45-.65-.66-1s-.49-.77-.72-1.17l-.39-.68a2,2,0,0,1-.11-.2,2.75,2.75,0,0,1-.17-.29c-.21-.4-.42-.79-.62-1.2s-.39-.82-.58-1.24l-.1-.25-.09-.21c-.12-.28-.24-.56-.35-.85q-.27-.7-.51-1.41c-.07-.22-.13-.43-.19-.65s-.09-.27-.12-.39-.12-.37-.16-.56a20.26,20.26,0,0,1-.45-2l-.09-.5C383.6,497.68,384.25,494.36,385.83,492.16Z"/><path class="cls-28" d="M391.48,482.88a13.68,13.68,0,0,0-2.59-.17l-.28,0a11,11,0,0,0-2.41.41l-.17.05a9.26,9.26,0,0,0-2.25,1.05l7.84-5.08.1-.06a7.91,7.91,0,0,1,.95-.52c.32-.15.65-.29,1-.41l.21-.06.17,0c.23-.07.45-.15.68-.2s.75-.14,1.15-.19c.19,0,.39,0,.58,0l.28,0,.4,0a14.1,14.1,0,0,1,1.43.07l.76.12.46.08c.17,0,.33,0,.5.08a20.88,20.88,0,0,1,2.3.67l.25.09,26.81,9.94c.59.22,1.18.49,1.77.78a20.74,20.74,0,0,1,2.59,1.64c.27.19.53.41.79.62s.77.58,1.13.91.48.46.71.69l.41.39.37.35c.38.41.76.82,1.13,1.25l.67.82a1,1,0,0,0,.13.16l.13.17c.28.36.56.73.82,1.1s.5.72.74,1.09l.32.51.11.18.25.39.62,1.09c.2.37.39.75.58,1.12.07.15.14.3.2.45a1.24,1.24,0,0,1,.1.2l.24.5c.17.41.34.81.5,1.22s.32.87.47,1.31c0,0,0,.1.05.15s0,.12,0,.18c.12.38.24.76.34,1.15.16.62.3,1.23.41,1.85,0,0,0,.08,0,.12a18.13,18.13,0,0,1,.29,3.41c-.09,5.87-1.68,10.54-4.4,13.76A13.93,13.93,0,0,1,438.1,529L430.26,534c4.57-2.95,7.35-8.65,7.47-16.48a18.3,18.3,0,0,0-.29-3.42,22.35,22.35,0,0,0-.76-3.11,1.27,1.27,0,0,0-.06-.18,26.51,26.51,0,0,0-1.25-3.18,2,2,0,0,0-.1-.21,27.94,27.94,0,0,0-1.65-3l-.11-.18a30.67,30.67,0,0,0-2-2.87l-.13-.16a29.6,29.6,0,0,0-2.17-2.43l-.41-.38a22.9,22.9,0,0,0-1.84-1.6c-.26-.21-.52-.43-.79-.62a20,20,0,0,0-2.59-1.64,16.16,16.16,0,0,0-1.77-.78L395,483.8a17.4,17.4,0,0,0-3-.84Z"/><path class="cls-26" d="M348,466.34a23.7,23.7,0,0,1,2.6,1.15c6.95,3.58,13.44,10.93,17.28,19.11a11.22,11.22,0,0,1,7.27,1.4,21.72,21.72,0,0,1,4.17,2.84c1.86-6.88,7.78-10,15.69-7l26.81,9.94a16.16,16.16,0,0,1,1.77.78c7.66,3.94,14.29,14.48,14.16,23-.24,15.07-10.33,22.27-24.08,17.16l-11.52-4.26a23.79,23.79,0,0,1-2.56-1.13c-9.83-5.06-18.74-17.6-20.55-29.45-.13-.72-.18-1.41-.24-2.1a12.71,12.71,0,0,0-3.28-2.5,5.47,5.47,0,0,0-4.8-.5c.15.7.28,1.43.42,2.15,1.95,12.87-5.2,20.07-16,16.07l-11.51-4.28a34,34,0,0,1-3.79-1.68c-12.4-6.38-24.08-21-28.76-36.52-3.15-10.42,1.73-17.23,10.11-14.13Zm36.24,35.46c1.34,8.66,7.89,17.88,15.1,21.59a16.18,16.18,0,0,0,1.87.83l11.52,4.28c11.24,4.17,19.53-1.76,19.72-14.1a15.7,15.7,0,0,0-2.89-8.59,16.18,16.18,0,0,0-5.72-5.37,8.38,8.38,0,0,0-1.07-.48L396,490c-7.91-2.92-13.17,2.35-11.74,11.79M316,471.17c3.82,12.69,13.44,24.71,23.59,29.93a27.13,27.13,0,0,0,3.1,1.37l11.51,4.29c7.88,2.93,13.14-2.37,11.71-11.77-1.32-8.69-7.89-17.91-15.07-21.61a16.18,16.18,0,0,0-1.87-.83l-26.81-9.94c-2.44-.92-4.52-.49-5.72,1.19s-1.34,4.37-.44,7.37"/><path class="cls-30" d="M307.1,845.78a3.1,3.1,0,0,0,1.56-.37l26.55-15.32c.34-.2.53-.44.53-.67s-.19-.45-.51-.64l-49.32-28.49a3.24,3.24,0,0,0-1.56-.36,3.31,3.31,0,0,0-1.57.36l-26.54,15.33c-.34.19-.53.44-.53.66s.19.46.51.65l49.32,28.48A3.13,3.13,0,0,0,307.1,845.78Z"/><g class="cls-1"><polygon class="cls-23" points="296.17 837.31 316.18 825.67 316.28 791.83 296.26 803.46 296.17 837.31"/><polygon class="cls-18" points="267.13 752.99 287.14 741.36 257.68 724.36 237.67 735.99 267.13 752.99"/><polygon class="cls-23" points="325.72 820.46 345.73 808.83 345.83 775.25 325.81 786.88 325.72 820.46"/><polygon class="cls-18" points="325.81 786.88 345.83 775.25 316.37 758.24 296.36 769.87 325.81 786.88"/><polygon class="cls-18" points="296.45 736.02 316.47 724.39 287.24 707.51 267.22 719.15 296.45 736.02"/><polygon class="cls-23" points="296.36 769.87 316.37 758.24 316.47 724.39 296.45 736.02 296.36 769.87"/><polygon class="cls-31" points="267.22 719.15 267.13 752.99 237.67 735.99 237.58 769.58 267.03 786.59 266.94 820.43 296.17 837.31 296.26 803.46 325.72 820.46 325.81 786.88 296.36 769.87 296.45 736.02 267.22 719.15"/></g></g></g></g></svg>