<svg width="92" height="102" viewBox="0 0 92 102" fill="none" xmlns="http://www.w3.org/2000/svg">
<path d="M29.9783 58.1041C29.9783 56.8841 30.463 55.7141 31.3256 54.8514C32.1883 53.9888 33.3583 53.5041 34.5783 53.5041H41.4001V46.6317C41.4001 45.4117 41.8848 44.2417 42.7474 43.379C43.6101 42.5164 44.7801 42.0317 46.0001 42.0317C47.2201 42.0317 48.3902 42.5164 49.2528 43.379C50.1155 44.2417 50.6001 45.4117 50.6001 46.6317V53.5041H57.4219C58.6419 53.5041 59.812 53.9888 60.6746 54.8514C61.5373 55.7141 62.0219 56.8841 62.0219 58.1041C62.0219 59.3241 61.5373 60.4942 60.6746 61.3568C59.812 62.2195 58.6419 62.7041 57.4219 62.7041H50.6001V69.5765C50.6001 70.7965 50.1155 71.9666 49.2528 72.8292C48.3902 73.6919 47.2201 74.1765 46.0001 74.1765C44.7801 74.1765 43.6101 73.6919 42.7474 72.8292C41.8848 71.9666 41.4001 70.7965 41.4001 69.5765V62.7041H34.5783C33.3583 62.7041 32.1883 62.2195 31.3256 61.3568C30.463 60.4942 29.9783 59.3241 29.9783 58.1041Z" fill="#1FC1B9"/>
<path fill-rule="evenodd" clip-rule="evenodd" d="M61.0972 8.03825C59.1183 10.7649 57.2087 13.5411 55.3702 16.3643L55.3564 16.3873L53.6452 19.0277L53.6176 19.0737L53.6038 19.0921C52.0996 21.4151 50.6046 23.7243 49.151 26.0105C38.8332 25.9231 28.911 26.2635 15.479 27.0225C12.7788 27.1789 9.7382 28.2829 7.682 30.9647C4.6966 34.8609 0 43.0903 0 56.1175C0 70.9065 7.084 81.5325 16.261 84.9319C16.215 85.3689 16.1966 85.8151 16.1966 86.2659L16.1874 87.7471V87.7563C16.1874 88.5705 16.1782 89.4261 16.1874 90.2725C16.2564 96.6665 21.6062 100.77 27.1032 100.926C39.5922 101.289 52.4078 101.289 64.8968 100.926C70.3938 100.77 75.7436 96.6619 75.8126 90.2725C75.8218 89.4169 75.8172 88.5659 75.8126 87.7425L75.808 86.2613C75.808 85.8105 75.785 85.3689 75.739 84.9319C84.9206 81.5279 92 70.9065 92 56.1175C92 43.5043 87.5978 35.3853 84.6078 31.3465C85.8038 29.3961 86.9446 27.4595 88.044 25.5505L88.067 25.5137C90.1813 21.8286 91.0554 17.5616 90.5602 13.3421C90.0404 9.16985 88.0118 4.96085 83.95 2.31125C79.8836 -0.338348 75.21 -0.485547 71.1942 0.742653C67.1439 2.01285 63.6122 4.55719 61.1248 7.99685L61.0972 8.03825ZM68.6136 13.3467L68.5906 13.3789C66.6877 15.9982 64.8517 18.6656 63.0844 21.3783L63.066 21.4013L61.3364 24.0785L61.3088 24.1245L59.9288 26.2451C64.9612 26.4153 70.3478 26.6775 76.4658 27.0271C77.717 25.0031 78.9222 22.9607 80.0998 20.9183L80.1182 20.8861C81.2196 18.9416 81.68 16.6994 81.4338 14.4783C81.1762 12.4083 80.2654 10.8903 78.9268 10.0163C77.5928 9.14685 75.854 8.93525 73.8806 9.53785C71.8796 10.1497 69.9246 11.5343 68.6136 13.3467ZM51.5338 35.2427H51.6672C58.9352 35.3531 66.5804 35.6751 76.0012 36.2087C76.7372 36.2547 76.9764 36.5077 77.0132 36.5583C79.0004 39.1481 82.8 45.4639 82.8 56.1175C82.8 70.8375 74.796 76.7163 69.598 76.8911C68.7824 76.9186 67.9888 77.1627 67.2986 77.5981C66.6084 78.0336 66.0465 78.6449 65.6705 79.3692C65.2946 80.0935 65.1181 80.9048 65.1591 81.7199C65.2002 82.5349 65.4573 83.3244 65.9042 84.0073C66.3584 84.6716 66.6035 85.4566 66.608 86.2613L66.6126 87.8023C66.6172 88.6303 66.6218 89.4123 66.6126 90.1713C66.6147 90.3587 66.5758 90.5442 66.4987 90.715C66.4217 90.8859 66.3082 91.0378 66.1664 91.1603C65.7382 91.5268 65.1936 91.729 64.63 91.7307C52.3204 92.0849 39.6796 92.0849 27.37 91.7307C26.8064 91.729 26.2618 91.5268 25.8336 91.1603C25.6918 91.0378 25.5783 90.8859 25.5013 90.715C25.4242 90.5442 25.3853 90.3587 25.3874 90.1713C25.3782 89.4123 25.3874 88.6303 25.3874 87.8023L25.3966 86.2613C25.3966 85.4655 25.6266 84.7249 26.0958 84.0073C26.5427 83.3244 26.7998 82.5349 26.8409 81.7199C26.8819 80.9048 26.7054 80.0935 26.3295 79.3692C25.9535 78.6449 25.3916 78.0336 24.7014 77.5981C24.0112 77.1627 23.2176 76.9186 22.402 76.8911C17.204 76.7163 9.2 70.8375 9.2 56.1175C9.2 45.4639 12.9996 39.1481 14.9822 36.5583C15.0236 36.5123 15.2628 36.2547 15.9942 36.2133C30.3002 35.3991 40.503 35.0771 51.5338 35.2427Z" fill="#1FC1B9"/>
</svg>
