<svg width="101" height="101" viewBox="0 0 101 101" fill="none" xmlns="http://www.w3.org/2000/svg">
<path fill-rule="evenodd" clip-rule="evenodd" d="M70.1836 1.2336C70.5744 0.842531 71.0386 0.53229 71.5494 0.320619C72.0603 0.108949 72.6079 0 73.161 0C73.714 0 74.2616 0.108949 74.7725 0.320619C75.2834 0.53229 75.7475 0.842531 76.1384 1.2336L87.9638 13.057L87.9764 13.0654L87.9891 13.0781L99.8187 24.9015C100.585 25.6948 101.009 26.7573 101 27.8601C100.99 28.9629 100.548 30.0179 99.7674 30.7977C98.9872 31.5776 97.9316 32.0199 96.8282 32.0295C95.7248 32.0391 94.6618 31.6151 93.8681 30.849L85.0011 21.9908L73.9038 33.0908L99.3389 58.5127C99.7409 58.9007 100.061 59.3648 100.282 59.878C100.503 60.3911 100.619 60.9431 100.624 61.5015C100.628 62.06 100.522 62.6139 100.31 63.1308C100.099 63.6477 99.7862 64.1173 99.3911 64.5123C98.996 64.9072 98.5261 65.2195 98.0089 65.431C97.4917 65.6425 96.9376 65.7489 96.3788 65.7441C95.82 65.7392 95.2678 65.6232 94.7543 65.4027C94.2409 65.1823 93.7766 64.8619 93.3884 64.4601L81.4745 52.5568C70.1415 67.0301 59.0399 78.9418 48.6411 85.6885C42.9725 89.3646 37.1692 91.7411 31.4038 91.8715C26.9296 91.9906 22.5381 90.6516 18.8924 88.0565L7.23534 99.7159C6.84713 100.118 6.38276 100.438 5.86933 100.659C5.3559 100.879 4.80368 100.995 4.2449 101C3.68612 101.005 3.13197 100.898 2.61478 100.687C2.09759 100.475 1.62772 100.163 1.23259 99.7681C0.83746 99.3731 0.524978 98.9035 0.313379 98.3866C0.10178 97.8697 -0.00469675 97.3158 0.000158894 96.7573C0.00501454 96.1988 0.121107 95.6469 0.341661 95.1337C0.562216 94.6206 0.882817 94.1564 1.28476 93.7684L12.8661 82.1806C10.1098 78.4717 8.69971 73.9352 8.86817 69.3182C9.0365 63.6189 11.3721 57.8187 14.9997 52.1151C21.6741 41.6461 33.4364 30.4031 47.9341 19.0339L36.5548 7.66057C36.1529 7.27257 35.8323 6.80844 35.6117 6.29528C35.3912 5.78211 35.2751 5.23018 35.2702 4.6717C35.2653 4.11321 35.3718 3.55935 35.5834 3.04243C35.795 2.52551 36.1075 2.05589 36.5026 1.66097C36.8978 1.26604 37.3676 0.953723 37.8848 0.742235C38.402 0.530747 38.9562 0.424324 39.5149 0.429177C40.0737 0.43403 40.6259 0.550061 41.1394 0.7705C41.6528 0.990939 42.1172 1.31137 42.5054 1.7131L67.949 27.1434L79.0506 16.0392L70.1836 7.18107C69.3947 6.3923 68.9514 5.32265 68.9514 4.20733C68.9514 3.09202 69.3947 2.02237 70.1836 1.2336ZM21.8425 79.6443C24.864 82.4624 27.9572 83.5391 31.2102 83.4634C34.821 83.3793 39.0924 81.8525 44.0583 78.6348C53.4218 72.5569 64.0184 61.2761 75.423 46.6304L53.8637 25.0781C51.9236 26.5924 50.0425 28.0939 48.2245 29.5829L57.7353 39.0888C58.5019 39.8821 58.9261 40.9445 58.9165 42.0474C58.9069 43.1502 58.4643 44.2051 57.6841 44.985C56.9038 45.7648 55.8483 46.2072 54.7449 46.2168C53.6415 46.2264 52.5785 45.8024 51.7848 45.0362L41.7942 35.0509C39.4308 37.1294 37.1238 39.2711 34.8757 41.4736L45.1103 51.7071C45.8769 52.5004 46.3011 53.5629 46.2915 54.6657C46.2819 55.7686 45.8393 56.8235 45.0591 57.6034C44.2788 58.3832 43.2233 58.8256 42.1199 58.8352C41.0165 58.8448 39.9535 58.4208 39.1598 57.6546L29.0682 47.5683C26.512 50.4048 24.1819 53.4369 22.0992 56.6367C18.9135 61.642 17.3858 65.9533 17.2764 69.5664C17.1754 72.9733 18.3159 76.1069 21.2533 79.0722C21.4678 79.2433 21.6651 79.4349 21.8425 79.6443Z" fill="#D98E19"/>
</svg>
