<svg width="113" height="104" viewBox="0 0 113 104" fill="none" xmlns="http://www.w3.org/2000/svg">
<path fill-rule="evenodd" clip-rule="evenodd" d="M2.0905 4.13147C2.23489 2.99012 2.78893 1.94082 3.64877 1.18024C4.5086 0.419667 5.61521 3.47935e-05 6.76117 0H13.3858C14.6345 0 15.8321 0.498032 16.7151 1.38453C17.5981 2.27103 18.0941 3.47338 18.0941 4.72709C18.0941 5.98079 17.5981 7.18314 16.7151 8.06964C15.8321 8.95614 14.6345 9.45417 13.3858 9.45417H10.961C10.8009 10.981 10.6126 12.8671 10.4243 14.9896C9.91575 20.7283 9.41667 28.1309 9.41667 34.9426C9.41667 45.9378 20.1611 55.6283 31.899 55.6283C43.6415 55.6283 54.386 45.9378 54.386 34.9426C54.386 28.1356 53.8869 20.7377 53.3784 14.9943C53.19 12.8766 53.0017 10.9905 52.8416 9.46362H50.0449C48.7961 9.46362 47.5986 8.9656 46.7156 8.07909C45.8326 7.19259 45.3365 5.99024 45.3365 4.73654C45.3365 3.48284 45.8326 2.28049 46.7156 1.39399C47.5986 0.507485 48.7961 0.00945349 50.0449 0.00945349H57.0415C58.1867 0.00934163 59.2927 0.428311 60.1525 1.18792C61.0122 1.94753 61.5667 2.99571 61.7121 4.1362L61.7215 4.19293L61.7357 4.33947L61.8063 4.89726C61.8628 5.37942 61.9475 6.07903 62.0417 6.95827C62.2395 8.7262 62.4984 11.2221 62.7574 14.1623C63.2753 20.0239 63.8026 27.7291 63.8026 34.9426C63.8026 50.3529 50.9018 62.4779 36.612 64.7138V68.6231C36.6147 75.4906 39.3129 82.0803 44.1218 86.9642C46.488 89.3693 49.3062 91.2789 52.413 92.5822C55.5199 93.8855 58.8535 94.5566 62.2206 94.5566C65.5878 94.5566 68.9214 93.8855 72.0282 92.5822C75.1351 91.2789 77.9533 89.3693 80.3195 86.9642C85.1301 82.0811 87.83 75.4913 87.834 68.6231V48.8213C83.813 48.1265 80.2535 46.4578 77.485 43.6594C73.6901 39.8162 72.014 34.4888 72.014 28.5185C72.014 22.5529 73.6854 17.2208 77.485 13.3871C81.2894 9.54398 86.5768 7.84223 92.5046 7.84223C98.4324 7.84223 103.725 9.54398 107.524 13.3871C111.329 17.2255 113 22.5577 113 28.5232C113 34.4841 111.329 39.821 107.529 43.6546C104.775 46.4389 101.243 48.0981 97.2506 48.8024V68.6231C97.2485 77.9864 93.5668 86.9707 87.0053 93.6247C83.7568 96.9084 79.8942 99.5157 75.6394 101.297C69.2352 103.983 62.1781 104.687 55.3725 103.32C48.5669 101.953 42.3228 98.5773 37.4407 93.6247C30.8763 86.9703 27.1928 77.984 27.1906 68.6184V64.7138C12.9102 62.4779 0 50.3529 0 34.9426C0 27.7244 0.527334 20.0145 1.04525 14.1529C1.31876 11.0602 1.63582 7.97151 1.99633 4.88781L2.06696 4.33001L2.08108 4.1882L2.0905 4.13147ZM81.4306 28.5232C81.4306 24.2783 82.5983 21.6359 84.1662 20.0476C85.7293 18.4687 88.3283 17.2964 92.4999 17.2964C96.6809 17.2964 99.2799 18.4687 100.848 20.0476C102.416 21.6359 103.583 24.2783 103.583 28.5232C103.583 32.7634 102.416 35.4059 100.848 36.9942C99.2846 38.573 96.6856 39.7453 92.514 39.7453H92.4811L92.2551 39.7501C88.2295 39.7028 85.7011 38.5494 84.1662 36.9989C82.5983 35.4106 81.4306 32.7634 81.4306 28.5232Z" fill="#3F83F8"/>
</svg>
