<svg width="104" height="104" viewBox="0 0 104 104" fill="none" xmlns="http://www.w3.org/2000/svg">
<path fill-rule="evenodd" clip-rule="evenodd" d="M28.1662 0C19.7424 0 12.5491 2.3833 7.46622 7.46622C2.3833 12.5491 0 19.7424 0 28.1662C0 36.5901 2.3833 43.7834 7.46622 48.8663C12.5491 53.9492 19.7424 56.3325 28.1662 56.3325C36.5901 56.3325 43.7834 53.9492 48.8663 48.8663C53.9492 43.7834 56.3325 36.5901 56.3325 28.1662C56.3325 19.7424 53.9492 12.5491 48.8663 7.46622C43.7834 2.3833 36.5901 0 28.1662 0ZM8.66654 28.1662C8.66654 21.337 10.5732 16.6138 13.5935 13.5935C16.6138 10.5732 21.337 8.66654 28.1662 8.66654C32.7508 8.66654 36.3908 9.52886 39.1987 11.0065L11.0065 39.1987C9.52886 36.3908 8.66654 32.7508 8.66654 28.1662ZM17.1337 45.326C19.9417 46.8036 23.5816 47.666 28.1662 47.666C34.9955 47.666 39.7187 45.7593 42.739 42.739C45.7593 39.7187 47.666 34.9955 47.666 28.1662C47.666 23.5816 46.8036 19.9417 45.326 17.1337L17.1337 45.326ZM46.8383 62.5204L54.6555 54.7032L54.6772 54.6772L54.7032 54.6555L62.5204 46.8383C67.0772 42.2815 73.2575 39.7215 79.7018 39.7215C82.8927 39.7215 86.0523 40.35 89.0003 41.5711C91.9483 42.7922 94.6269 44.582 96.8832 46.8383C99.1395 49.0946 100.929 51.7732 102.15 54.7212C103.372 57.6692 104 60.8288 104 64.0197C104 67.2106 103.372 70.3702 102.15 73.3182C100.929 76.2662 99.1395 78.9448 96.8832 81.2011L81.1968 96.8832C76.64 101.44 70.4597 104 64.0154 104C57.5711 104 51.3908 101.44 46.834 96.8832C42.2772 92.3264 39.7172 86.1461 39.7172 79.7018C39.7172 73.2575 42.2772 67.0772 46.834 62.5204H46.8383ZM68.6476 52.9655C71.593 50.1001 75.5481 48.5094 79.6573 48.5377C83.7665 48.5659 87.6993 50.2108 90.605 53.1165C93.5107 56.0222 95.1556 59.9551 95.1839 64.0642C95.2121 68.1734 93.6214 72.1285 90.756 75.0739L85.9764 79.8492L63.8724 57.7451L68.6476 52.9655ZM57.7451 63.8724L79.8448 85.9764L75.0739 90.7517C73.6225 92.2033 71.8994 93.3549 70.003 94.1406C68.1066 94.9264 66.074 95.3309 64.0212 95.3311C61.9685 95.3313 59.9358 94.9272 58.0392 94.1418C56.1427 93.3564 54.4194 92.2052 52.9677 90.7538C51.5161 89.3025 50.3645 87.5794 49.5788 85.683C48.793 83.7865 48.3885 81.7539 48.3883 79.7012C48.3881 77.6484 48.7922 75.6158 49.5776 73.7192C50.3629 71.8226 51.5142 70.0993 52.9655 68.6476L57.7451 63.8724Z" fill="#F83B3B"/>
</svg>
