<svg width="14" height="16" viewBox="0 0 14 16" fill="none" xmlns="http://www.w3.org/2000/svg">
<path d="M4.32106 7.44999C3.57833 7.44999 2.86602 7.15504 2.34082 6.63003C1.81563 6.10503 1.52058 5.39296 1.52058 4.65049V2.41089C1.52058 2.2624 1.57959 2.11999 1.68463 2.01499C1.78967 1.90998 1.93213 1.851 2.08068 1.851H2.64078C2.78932 1.851 2.93178 1.79201 3.03682 1.68701C3.14186 1.582 3.20087 1.43959 3.20087 1.2911C3.20087 1.1426 3.14186 1.00019 3.03682 0.895187C2.93178 0.790186 2.78932 0.731197 2.64078 0.731197H2.08068C1.63504 0.731197 1.20765 0.908165 0.892535 1.22317C0.57742 1.53817 0.400391 1.96541 0.400391 2.41089V4.65049C0.401111 5.28303 0.55541 5.90594 0.850035 6.46573C1.14466 7.02552 1.57081 7.50545 2.09188 7.86431C2.59301 8.30511 2.99936 8.84306 3.28627 9.44556C3.57318 10.048 3.73468 10.7025 3.76097 11.3693C3.76097 12.4087 4.17404 13.4056 4.90931 14.1406C5.64458 14.8756 6.64181 15.2886 7.68164 15.2886C8.72147 15.2886 9.71871 14.8756 10.454 14.1406C11.1892 13.4056 11.6023 12.4087 11.6023 11.3693V10.731C12.1303 10.5947 12.5904 10.2706 12.8965 9.81948C13.2025 9.36832 13.3335 8.82108 13.2647 8.28032C13.196 7.73956 12.9324 7.24241 12.5232 6.88207C12.1141 6.52172 11.5875 6.32292 11.0422 6.32292C10.4969 6.32292 9.97035 6.52172 9.56119 6.88207C9.15204 7.24241 8.8884 7.73956 8.81969 8.28032C8.75098 8.82108 8.88192 9.36832 9.18796 9.81948C9.49401 10.2706 9.95414 10.5947 10.4821 10.731V11.3693C10.4821 12.1118 10.1871 12.8238 9.66188 13.3488C9.13669 13.8738 8.42437 14.1688 7.68164 14.1688C6.93891 14.1688 6.22659 13.8738 5.7014 13.3488C5.17621 12.8238 4.88116 12.1118 4.88116 11.3693C4.90887 10.7017 5.07211 10.0467 5.36097 9.44417C5.64983 8.84163 6.05827 8.30412 6.56145 7.86431C7.08045 7.5042 7.50442 7.02373 7.79705 6.46402C8.08969 5.9043 8.24227 5.28204 8.24174 4.65049V2.41089C8.24174 1.96541 8.06471 1.53817 7.74959 1.22317C7.43448 0.908165 7.00709 0.731197 6.56145 0.731197H6.00135C5.85281 0.731197 5.71034 0.790186 5.6053 0.895187C5.50027 1.00019 5.44126 1.1426 5.44126 1.2911C5.44126 1.43959 5.50027 1.582 5.6053 1.68701C5.71034 1.79201 5.85281 1.851 6.00135 1.851H6.56145C6.70999 1.851 6.85246 1.90998 6.9575 2.01499C7.06253 2.11999 7.12154 2.2624 7.12154 2.41089V4.65049C7.12154 5.01813 7.04911 5.38216 6.90837 5.72181C6.76763 6.06146 6.56135 6.37008 6.3013 6.63003C6.04125 6.88999 5.73253 7.0962 5.39276 7.23689C5.05299 7.37758 4.68883 7.44999 4.32106 7.44999ZM11.0422 9.68958C10.7451 9.68958 10.4602 9.5716 10.2501 9.3616C10.04 9.1516 9.92203 8.86677 9.92203 8.56978C9.92203 8.2728 10.04 7.98797 10.2501 7.77797C10.4602 7.56797 10.7451 7.44999 11.0422 7.44999C11.3393 7.44999 11.6242 7.56797 11.8343 7.77797C12.0444 7.98797 12.1624 8.2728 12.1624 8.56978C12.1624 8.86677 12.0444 9.1516 11.8343 9.3616C11.6242 9.5716 11.3393 9.68958 11.0422 9.68958Z" fill="#FF5E14"/>
</svg>
