<svg width="17" height="12" viewBox="0 0 17 12" fill="none" xmlns="http://www.w3.org/2000/svg">
<path d="M1.44618 4.45912L1.03814 4.09629L1.03551 4.09929L1.44618 4.45912ZM1.3919 4.81915L1.89519 4.60728C1.89364 4.6036 1.89204 4.59994 1.89041 4.59629L1.3919 4.81915ZM12.6707 11.3928L12.4353 11.8853L12.4366 11.8859L12.6707 11.3928ZM15.8956 4.81915L15.3971 4.59629C15.3955 4.59994 15.3939 4.6036 15.3923 4.60728L15.8956 4.81915ZM15.8413 4.45912L16.252 4.09928L16.2494 4.0963L15.8413 4.45912ZM7.17673 5.90876C6.87513 5.90876 6.63064 6.15317 6.63064 6.45467C6.63064 6.75616 6.87513 7.00057 7.17673 7.00057V5.90876ZM10.1108 7.00057C10.4124 7.00057 10.6569 6.75616 10.6569 6.45467C10.6569 6.15317 10.4124 5.90876 10.1108 5.90876V7.00057ZM9.18984 4.98779C9.18984 4.6863 8.94535 4.44189 8.64375 4.44189C8.34215 4.44189 8.09766 4.6863 8.09766 4.98779H9.18984ZM8.09766 7.9208C8.09766 8.2223 8.34215 8.46671 8.64375 8.46671C8.94535 8.46671 9.18984 8.2223 9.18984 7.9208H8.09766ZM8.64375 0.775629C4.28615 0.775629 1.67092 3.38515 1.03814 4.09629L1.85421 4.82194C2.40237 4.2059 4.74422 1.86743 8.64375 1.86743V0.775629ZM1.03551 4.09929C0.924085 4.22636 0.851466 4.38273 0.826273 4.54983L1.90626 4.71254C1.90031 4.75201 1.88316 4.78894 1.85684 4.81895L1.03551 4.09929ZM0.826273 4.54983C0.80108 4.71692 0.824371 4.88774 0.893381 5.042L1.89041 4.59629C1.90671 4.63273 1.91221 4.67307 1.90626 4.71254L0.826273 4.54983ZM0.888608 5.03101L3.57546 11.4092L4.58211 10.9857L1.89519 4.60728L0.888608 5.03101ZM3.57546 11.4092C3.79166 11.923 4.3897 12.1052 4.85163 11.8852L4.38192 10.8995C4.41782 10.8825 4.45575 10.8823 4.48779 10.8938C4.52132 10.9057 4.56096 10.9354 4.58211 10.9857L3.57546 11.4092ZM4.85163 11.8852C5.47087 11.5898 6.87445 11.0331 8.64375 11.0331V9.94129C6.65454 9.94129 5.08593 10.5637 4.38192 10.8995L4.85163 11.8852ZM8.64375 11.0331C10.4131 11.0331 11.8162 11.5896 12.4353 11.8853L12.9062 10.9002C12.202 10.5638 10.6329 9.94129 8.64375 9.94129V11.0331ZM12.4366 11.8859C12.8981 12.1049 13.4959 11.9228 13.7121 11.409L12.7055 10.9855C12.7266 10.9352 12.7662 10.9058 12.7995 10.8939C12.8313 10.8825 12.869 10.8826 12.9048 10.8996L12.4366 11.8859ZM13.7121 11.409L16.3989 5.03101L15.3923 4.60728L12.7055 10.9855L13.7121 11.409ZM16.3941 5.042C16.4631 4.88774 16.4864 4.71693 16.4612 4.54983L15.3812 4.71254C15.3753 4.67307 15.3808 4.63272 15.3971 4.59629L16.3941 5.042ZM16.4612 4.54983C16.436 4.38273 16.3634 4.22635 16.252 4.09928L15.4307 4.81895C15.4043 4.78894 15.3872 4.75201 15.3812 4.71254L16.4612 4.54983ZM16.2494 4.0963C15.6166 3.38515 13.0014 0.775629 8.64375 0.775629V1.86743C12.5433 1.86743 14.8851 4.2059 15.4333 4.82194L16.2494 4.0963ZM7.17673 7.00057H10.1108V5.90876H7.17673V7.00057ZM8.09766 4.98779V7.9208H9.18984V4.98779H8.09766Z" fill="#2B2B2B"/>
</svg>
