<svg width="16" height="17" viewBox="0 0 16 17" fill="none" xmlns="http://www.w3.org/2000/svg">
<path d="M12.2929 13.4288L12.0182 12.957C11.7613 13.1065 11.6711 13.4339 11.8154 13.6938L12.2929 13.4288ZM3.96868 13.4288L4.44615 13.6937C4.59042 13.4339 4.5003 13.1065 4.24337 12.957L3.96868 13.4288ZM2.17627 9.79038L1.91283 7.44985L0.827491 7.57192L1.09093 9.91246L2.17627 9.79038ZM1.91283 7.44985C1.86999 7.06925 2.1679 6.73608 2.55102 6.73608V5.64427C1.51634 5.64427 0.711807 6.54408 0.827491 7.57192L1.91283 7.44985ZM2.55102 6.73608H13.7107V5.64427H2.55102V6.73608ZM13.7107 6.73608C14.0937 6.73608 14.3917 7.06926 14.3488 7.44985L15.4342 7.57193C15.5498 6.54408 14.7453 5.64427 13.7107 5.64427V6.73608ZM14.3488 7.44985L14.0854 9.79038L15.1707 9.91246L15.4342 7.57193L14.3488 7.44985ZM14.0854 9.79038C13.9317 11.1552 13.1361 12.3066 12.0182 12.957L12.5676 13.9006C13.9734 13.0827 14.9771 11.6325 15.1707 9.91246L14.0854 9.79038ZM11.8154 13.6938C11.9858 14.0005 12.1047 14.3416 12.1595 14.7072L13.2396 14.5454C13.1651 14.0486 13.0031 13.5829 12.7703 13.1638L11.8154 13.6938ZM12.1595 14.7072C12.1905 14.9141 12.0301 15.1001 11.8209 15.1001V16.1919C12.6977 16.1919 13.3695 15.4124 13.2396 14.5454L12.1595 14.7072ZM11.8209 15.1001H4.44077V16.1919H11.8209V15.1001ZM4.44077 15.1001C4.23147 15.1001 4.07118 14.9141 4.10218 14.7072L3.02204 14.5454C2.89214 15.4124 3.56388 16.1919 4.44077 16.1919V15.1001ZM4.10218 14.7072C4.15695 14.3416 4.27583 14.0004 4.44615 13.6937L3.49121 13.1638C3.2585 13.5829 3.09649 14.0486 3.02204 14.5454L4.10218 14.7072ZM4.24337 12.957C3.12554 12.3066 2.32989 11.1552 2.17627 9.79038L1.09093 9.91246C1.28453 11.6325 2.28822 13.0827 3.69399 13.9006L4.24337 12.957Z" fill="black"/>
<path d="M8.22739 5.87159C8.06517 6.12576 8.13978 6.46326 8.39404 6.62542C8.6483 6.78759 8.98592 6.713 9.14814 6.45883L8.22739 5.87159ZM11.5721 5.86768C11.4078 6.12046 11.4795 6.45858 11.7324 6.6229C11.9852 6.78723 12.3235 6.71552 12.4879 6.46274L11.5721 5.86768ZM9.14814 6.45883L11.9683 2.04007L11.0476 1.45282L8.22739 5.87159L9.14814 6.45883ZM11.9683 2.04007C12.227 1.63473 12.7639 1.51316 13.1721 1.76751L13.7498 0.84097C12.8335 0.270028 11.6283 0.542925 11.0476 1.45282L11.9683 2.04007ZM13.1721 1.76751C13.5889 2.0272 13.7112 2.57824 13.4436 2.98984L14.3593 3.58488C14.9601 2.66093 14.6854 1.42393 13.7498 0.84097L13.1721 1.76751ZM13.4436 2.98984L11.5721 5.86768L12.4879 6.46274L14.3593 3.58488L13.4436 2.98984Z" fill="black"/>
<path d="M6.05293 10.3723C5.75133 10.3723 5.50684 10.6167 5.50684 10.9182C5.50684 11.2197 5.75133 11.4641 6.05293 11.4641V10.3723ZM10.2091 11.4641C10.5107 11.4641 10.7552 11.2197 10.7552 10.9182C10.7552 10.6167 10.5107 10.3723 10.2091 10.3723V11.4641ZM6.05293 11.4641H10.2091V10.3723H6.05293V11.4641Z" fill="black"/>
<path d="M8.67715 8.84093C8.67715 8.53944 8.43265 8.29503 8.13105 8.29503C7.82946 8.29503 7.58496 8.53944 7.58496 8.84093H8.67715ZM7.58496 12.9956C7.58496 13.2971 7.82946 13.5415 8.13105 13.5415C8.43265 13.5415 8.67715 13.2971 8.67715 12.9956H7.58496ZM7.58496 8.84093V12.9956H8.67715V8.84093H7.58496Z" fill="black"/>
</svg>
