<svg width="8" height="9" viewBox="0 0 8 9" fill="none" xmlns="http://www.w3.org/2000/svg">
<path d="M2.88264 8.43157C3.12816 8.63415 3.38422 8.8193 3.64635 9C3.90905 8.8217 4.16386 8.63204 4.41006 8.43157C4.82047 8.09458 5.20672 7.72918 5.56595 7.33807C6.39408 6.43256 7.2927 5.11988 7.2927 3.64635C7.2927 3.1675 7.19838 2.69335 7.01514 2.25095C6.83189 1.80856 6.5633 1.40659 6.22471 1.06799C5.88611 0.729396 5.48414 0.460808 5.04175 0.277562C4.59935 0.0943156 4.12519 0 3.64635 0C3.1675 0 2.69335 0.0943156 2.25095 0.277562C1.80856 0.460808 1.40659 0.729396 1.06799 1.06799C0.729396 1.40659 0.460808 1.80856 0.277562 2.25095C0.0943156 2.69335 -7.13535e-09 3.1675 0 3.64635C0 5.11988 0.898623 6.43216 1.72675 7.33807C2.08596 7.72932 2.47221 8.09445 2.88264 8.43157ZM3.64635 4.96309C3.29713 4.96309 2.96221 4.82436 2.71528 4.57742C2.46834 4.33049 2.32961 3.99557 2.32961 3.64635C2.32961 3.29713 2.46834 2.96221 2.71528 2.71528C2.96221 2.46834 3.29713 2.32961 3.64635 2.32961C3.99557 2.32961 4.33049 2.46834 4.57742 2.71528C4.82436 2.96221 4.96309 3.29713 4.96309 3.64635C4.96309 3.99557 4.82436 4.33049 4.57742 4.57742C4.33049 4.82436 3.99557 4.96309 3.64635 4.96309Z" fill="#ABABAB"/>
</svg>
