<svg width="30" height="34" viewBox="0 0 30 34" fill="none" xmlns="http://www.w3.org/2000/svg">
<path d="M18.9219 2.00659V7.83747C18.9219 8.62714 19.2365 9.386 19.7975 9.94541C20.36 10.5054 21.1214 10.8197 21.9152 10.8194H28.6038" stroke="#FFC400" stroke-width="2.5" stroke-linecap="round" stroke-linejoin="round"/>
<path d="M8.31895 9.94207H13.6131M8.31895 17.0004H22.4357M8.31895 24.0588H22.4357M28.7546 11.4355V25.3284C28.7224 26.2371 28.5107 27.1305 28.1317 27.957C27.7526 28.7836 27.2138 29.5269 26.5461 30.1442C25.8779 30.7644 25.0941 31.2469 24.2394 31.564C23.3847 31.8812 22.4759 32.0269 21.5649 31.9927H9.25779C8.34123 32.0346 7.42541 31.8952 6.56284 31.5824C5.70026 31.2697 4.9079 30.7898 4.23117 30.1702C3.55707 29.5512 3.01269 28.8044 2.62967 27.9732C2.24664 27.142 2.03261 26.243 2 25.3284V8.6692C2.03219 7.76048 2.24391 6.8671 2.62294 6.04057C3.00198 5.21404 3.54084 4.4707 4.20847 3.85337C4.87666 3.23319 5.66049 2.75073 6.51518 2.43356C7.36987 2.11639 8.27869 1.97072 9.18969 2.00487H18.4549C19.8693 1.99988 21.2346 2.52321 22.2832 3.47232L27.0828 7.88602C27.595 8.32719 28.0085 8.87124 28.2966 9.48278C28.5846 10.0943 28.7407 10.7596 28.7546 11.4355Z" stroke="#FFC400" stroke-width="2.5" stroke-linecap="round" stroke-linejoin="round"/>
</svg>
