<svg width="13" height="17" viewBox="0 0 13 17" fill="none" xmlns="http://www.w3.org/2000/svg">
<path d="M11.0917 1.69351L11.3486 1.21177L11.3473 1.21109L11.0917 1.69351ZM12.0463 2.68269L11.5554 2.92198L11.5562 2.92357L12.0463 2.68269ZM12.0463 14.7675L11.5561 14.5269L11.5554 14.5282L12.0463 14.7675ZM11.0917 15.7567L11.3467 16.2394L11.3486 16.2384L11.0917 15.7567ZM2.55517 15.7559L2.2983 16.2377L2.29959 16.2384L2.55517 15.7559ZM1.6006 14.7668L2.09143 14.5275L2.09065 14.5259L1.6006 14.7668ZM1.6006 2.68196L2.09079 2.92255L2.09131 2.9215L1.6006 2.68196ZM2.55517 1.69351L2.29959 1.21109L2.29842 1.21171L2.55517 1.69351ZM8.78938 1.99194C9.41037 1.99194 9.84197 1.9924 10.1777 2.02091C10.5065 2.04883 10.694 2.1007 10.8361 2.17594L11.3473 1.21109C11.0219 1.03885 10.67 0.966981 10.2702 0.93303C9.87747 0.899678 9.39164 0.900136 8.78938 0.900136V1.99194ZM10.8348 2.17525C11.1478 2.342 11.4 2.60336 11.5554 2.92198L12.5371 2.44339C12.2807 1.91787 11.8647 1.48679 11.3486 1.21177L10.8348 2.17525ZM11.5562 2.92357C11.6319 3.07751 11.683 3.27931 11.7102 3.62467C11.7379 3.97583 11.7383 4.42634 11.7383 5.06937H12.8305C12.8305 4.44373 12.8309 3.94291 12.799 3.53891C12.7667 3.1291 12.6987 2.77189 12.5363 2.4418L11.5562 2.92357ZM11.7383 5.06937V12.3801H12.8305V5.06937H11.7383ZM11.7383 12.3801C11.7383 13.0231 11.7379 13.4736 11.7102 13.8249C11.683 14.1703 11.6319 14.3724 11.5561 14.5269L12.5365 15.0081C12.6987 14.6778 12.7667 14.3206 12.799 13.9106C12.8309 13.5065 12.8305 13.0057 12.8305 12.3801H11.7383ZM11.5554 14.5282C11.4 14.8468 11.1478 15.1082 10.8348 15.2749L11.3486 16.2384C11.8647 15.9634 12.2807 15.5323 12.5371 15.0068L11.5554 14.5282ZM10.8367 15.2739C10.6945 15.349 10.5067 15.4008 10.1779 15.4286C9.84202 15.4571 9.41034 15.4575 8.78938 15.4575V16.5493C9.39166 16.5493 9.87742 16.5498 10.2701 16.5165C10.6697 16.4827 11.0215 16.4111 11.3467 16.2394L10.8367 15.2739ZM8.78938 15.4575H4.8575V16.5493H8.78938V15.4575ZM4.8575 15.4575C4.23651 15.4575 3.80491 15.4571 3.46914 15.4285C3.14042 15.4006 2.95286 15.3488 2.81075 15.2735L2.29959 16.2384C2.62493 16.4106 2.97692 16.4825 3.37668 16.5164C3.7694 16.5498 4.25524 16.5493 4.8575 16.5493V15.4575ZM2.81204 15.2742C2.49909 15.1075 2.24688 14.8461 2.09143 14.5275L1.10977 15.0061C1.36616 15.5316 1.78215 15.9627 2.2983 16.2377L2.81204 15.2742ZM2.09065 14.5259C2.01493 14.3719 1.96389 14.1701 1.93667 13.8248C1.90899 13.4736 1.90859 13.0231 1.90859 12.3801H0.816406C0.816406 13.0057 0.816011 13.5065 0.847856 13.9105C0.880158 14.3204 0.948171 14.6776 1.11055 15.0077L2.09065 14.5259ZM1.90859 12.3801V5.06937H0.816406V12.3801H1.90859ZM1.90859 5.06937C1.90859 4.42634 1.90899 3.97583 1.93667 3.62457C1.96389 3.27916 2.01493 3.07701 2.09079 2.92255L1.1104 2.44136C0.948169 2.77166 0.88016 3.12889 0.847855 3.53882C0.816012 3.94291 0.816406 4.44372 0.816406 5.06937H1.90859ZM2.09131 2.9215C2.24685 2.60308 2.49906 2.34192 2.81192 2.17532L2.29842 1.21171C1.7824 1.4865 1.36643 1.91723 1.10988 2.44242L2.09131 2.9215ZM2.81075 2.17594C2.95286 2.1007 3.14042 2.04883 3.46914 2.02091C3.80491 1.9924 4.23651 1.99194 4.8575 1.99194V0.900136C4.25524 0.900136 3.7694 0.899678 3.37668 0.93303C2.97692 0.966981 2.62493 1.03885 2.29959 1.21109L2.81075 2.17594ZM4.8575 1.99194H8.78938V0.900136H4.8575V1.99194Z" fill="black"/>
<path d="M4.45742 15.2756C4.45742 15.5771 4.70192 15.8215 5.00352 15.8215C5.30512 15.8215 5.54961 15.5771 5.54961 15.2756H4.45742ZM8.09805 15.2756C8.09805 15.5771 8.34254 15.8215 8.64414 15.8215C8.94574 15.8215 9.19023 15.5771 9.19023 15.2756H8.09805ZM5.36758 4.9035C5.66918 4.9035 5.91367 4.65909 5.91367 4.3576C5.91367 4.05611 5.66918 3.8117 5.36758 3.8117V4.9035ZM3.91133 3.8117C3.60973 3.8117 3.36523 4.05611 3.36523 4.3576C3.36523 4.65909 3.60973 4.9035 3.91133 4.9035V3.8117ZM5.36758 7.81498C5.66918 7.81498 5.91367 7.57057 5.91367 7.26907C5.91367 6.96758 5.66918 6.72317 5.36758 6.72317V7.81498ZM3.91133 6.72317C3.60973 6.72317 3.36523 6.96758 3.36523 7.26907C3.36523 7.57057 3.60973 7.81498 3.91133 7.81498V6.72317ZM9.73633 4.9035C10.0379 4.9035 10.2824 4.65909 10.2824 4.3576C10.2824 4.05611 10.0379 3.8117 9.73633 3.8117V4.9035ZM8.28008 3.8117C7.97848 3.8117 7.73398 4.05611 7.73398 4.3576C7.73398 4.65909 7.97848 4.9035 8.28008 4.9035V3.8117ZM9.73633 7.81498C10.0379 7.81498 10.2824 7.57057 10.2824 7.26907C10.2824 6.96758 10.0379 6.72317 9.73633 6.72317V7.81498ZM8.28008 6.72317C7.97848 6.72317 7.73398 6.96758 7.73398 7.26907C7.73398 7.57057 7.97848 7.81498 8.28008 7.81498V6.72317ZM5.54961 15.2756V11.2724H4.45742V15.2756H5.54961ZM5.54961 11.2724C5.54961 11.031 5.6455 10.7996 5.81619 10.629L5.0439 9.85698C4.66838 10.2324 4.45742 10.7415 4.45742 11.2724H5.54961ZM5.81619 10.629C5.98688 10.4584 6.21838 10.3625 6.45977 10.3625V9.27071C5.92871 9.27071 5.41941 9.4816 5.0439 9.85698L5.81619 10.629ZM6.45977 10.3625H7.18789V9.27071H6.45977V10.3625ZM7.18789 10.3625C7.42928 10.3625 7.66078 10.4584 7.83147 10.629L8.60376 9.85698C8.22825 9.4816 7.71895 9.27071 7.18789 9.27071V10.3625ZM7.83147 10.629C8.00216 10.7996 8.09805 11.031 8.09805 11.2724H9.19023C9.19023 10.7415 8.97927 10.2324 8.60376 9.85698L7.83147 10.629ZM8.09805 11.2724V15.2756H9.19023V11.2724H8.09805ZM5.36758 3.8117H3.91133V4.9035H5.36758V3.8117ZM5.36758 6.72317H3.91133V7.81498H5.36758V6.72317ZM9.73633 3.8117H8.28008V4.9035H9.73633V3.8117ZM9.73633 6.72317H8.28008V7.81498H9.73633V6.72317Z" fill="black"/>
</svg>
