<svg width="17" height="18" viewBox="0 0 17 18" fill="none" xmlns="http://www.w3.org/2000/svg">
<path d="M8.54258 11.4001C9.86806 11.4001 10.9426 10.3256 10.9426 9.0001C10.9426 7.67461 9.86806 6.6001 8.54258 6.6001C7.21709 6.6001 6.14258 7.67461 6.14258 9.0001C6.14258 10.3256 7.21709 11.4001 8.54258 11.4001Z" stroke="#666666" stroke-width="1.5"/>
<path d="M9.95455 1.1216C9.66095 1 9.28815 1 8.54255 1C7.79695 1 7.42415 1 7.13055 1.1216C6.93629 1.20201 6.75979 1.31992 6.61113 1.46858C6.46246 1.61724 6.34456 1.79374 6.26415 1.988C6.19055 2.1664 6.16095 2.3752 6.14975 2.6784C6.14454 2.89754 6.08383 3.11178 5.9733 3.30108C5.86277 3.49038 5.70603 3.64855 5.51775 3.7608C5.32639 3.86782 5.11102 3.92454 4.89177 3.92566C4.67253 3.92678 4.45659 3.87226 4.26415 3.7672C3.99535 3.6248 3.80095 3.5464 3.60815 3.5208C3.1876 3.4655 2.76231 3.57945 2.42575 3.8376C2.17455 4.032 1.98735 4.3544 1.61455 5C1.24175 5.6456 1.05455 5.968 1.01375 6.284C0.986256 6.49236 1.00008 6.7041 1.05444 6.90712C1.1088 7.11013 1.20262 7.30045 1.33055 7.4672C1.44895 7.6208 1.61455 7.7496 1.87135 7.9112C2.24975 8.1488 2.49295 8.5536 2.49295 9C2.49295 9.4464 2.24975 9.8512 1.87135 10.088C1.61455 10.2504 1.44815 10.3792 1.33055 10.5328C1.20262 10.6995 1.1088 10.8899 1.05444 11.0929C1.00008 11.2959 0.986256 11.5076 1.01375 11.716C1.05535 12.0312 1.24175 12.3544 1.61375 13C1.98735 13.6456 2.17375 13.968 2.42575 14.1624C2.5925 14.2903 2.78282 14.3841 2.98583 14.4385C3.18885 14.4929 3.40059 14.5067 3.60895 14.4792C3.80095 14.4536 3.99535 14.3752 4.26415 14.2328C4.45659 14.1277 4.67253 14.0732 4.89177 14.0743C5.11102 14.0755 5.32639 14.1322 5.51775 14.2392C5.90415 14.4632 6.13375 14.8752 6.14975 15.3216C6.16095 15.6256 6.18975 15.8336 6.26415 16.012C6.34456 16.2063 6.46246 16.3828 6.61113 16.5314C6.75979 16.6801 6.93629 16.798 7.13055 16.8784C7.42415 17 7.79695 17 8.54255 17C9.28815 17 9.66095 17 9.95455 16.8784C10.1488 16.798 10.3253 16.6801 10.474 16.5314C10.6226 16.3828 10.7405 16.2063 10.8209 16.012C10.8945 15.8336 10.9241 15.6256 10.9353 15.3216C10.9513 14.8752 11.1809 14.4624 11.5673 14.2392C11.7587 14.1322 11.9741 14.0755 12.1933 14.0743C12.4126 14.0732 12.6285 14.1277 12.8209 14.2328C13.0897 14.3752 13.2841 14.4536 13.4761 14.4792C13.6845 14.5067 13.8962 14.4929 14.0993 14.4385C14.3023 14.3841 14.4926 14.2903 14.6593 14.1624C14.9113 13.9688 15.0977 13.6456 15.4705 13C15.8433 12.3544 16.0305 12.032 16.0713 11.716C16.0988 11.5076 16.085 11.2959 16.0307 11.0929C15.9763 10.8899 15.8825 10.6995 15.7545 10.5328C15.6361 10.3792 15.4705 10.2504 15.2137 10.0888C15.0265 9.97472 14.8712 9.81499 14.7625 9.62457C14.6538 9.43414 14.5952 9.21925 14.5921 9C14.5921 8.5536 14.8353 8.1488 15.2137 7.912C15.4705 7.7496 15.6369 7.6208 15.7545 7.4672C15.8825 7.30045 15.9763 7.11013 16.0307 6.90712C16.085 6.7041 16.0988 6.49236 16.0713 6.284C16.0297 5.9688 15.8433 5.6456 15.4713 5C15.0977 4.3544 14.9113 4.032 14.6593 3.8376C14.4926 3.70967 14.3023 3.61585 14.0993 3.56149C13.8962 3.50714 13.6845 3.49331 13.4761 3.5208C13.2841 3.5464 13.0897 3.6248 12.8201 3.7672C12.6278 3.87211 12.412 3.92656 12.1929 3.92544C11.9738 3.92432 11.7586 3.86767 11.5673 3.7608C11.3791 3.64855 11.2223 3.49038 11.1118 3.30108C11.0013 3.11178 10.9406 2.89754 10.9353 2.6784C10.9241 2.3744 10.8953 2.1664 10.8209 1.988C10.7405 1.79374 10.6226 1.61724 10.474 1.46858C10.3253 1.31992 10.1488 1.20201 9.95455 1.1216Z" stroke="#666666" stroke-width="1.5"/>
</svg>
