<svg width="10" height="10" viewBox="0 0 10 10" fill="none" xmlns="http://www.w3.org/2000/svg">
<path d="M4.975 7.99999C5.15 7.99999 5.298 7.93949 5.419 7.81849C5.54 7.69749 5.60033 7.54966 5.6 7.37499C5.59966 7.20033 5.53933 7.05233 5.419 6.93099C5.29866 6.80966 5.15066 6.74933 4.975 6.74999C4.79933 6.75066 4.6515 6.81116 4.5315 6.93149C4.4115 7.05183 4.351 7.19966 4.35 7.37499C4.349 7.55033 4.4095 7.69833 4.5315 7.81899C4.6535 7.93966 4.80133 7.99999 4.975 7.99999ZM4.525 6.07499H5.45C5.45 5.79999 5.48133 5.58333 5.544 5.425C5.60666 5.26666 5.78366 5.05 6.075 4.775C6.29166 4.55833 6.4625 4.352 6.5875 4.156C6.7125 3.96 6.775 3.72466 6.775 3.45C6.775 2.98333 6.60416 2.625 6.2625 2.375C5.92083 2.125 5.51666 2 5.05 2C4.575 2 4.18966 2.125 3.894 2.375C3.59833 2.625 3.392 2.925 3.275 3.275L4.1 3.6C4.14166 3.45 4.2355 3.2875 4.3815 3.1125C4.5275 2.9375 4.75033 2.85 5.05 2.85C5.31666 2.85 5.51666 2.923 5.65 3.069C5.78333 3.215 5.85 3.37533 5.85 3.55C5.85 3.71666 5.8 3.873 5.7 4.019C5.6 4.165 5.475 4.30033 5.325 4.425C4.95833 4.75 4.73333 4.99583 4.65 5.1625C4.56666 5.32916 4.525 5.63333 4.525 6.07499ZM5 9.99999C4.30833 9.99999 3.65833 9.86882 3.05 9.60649C2.44167 9.34416 1.9125 8.98783 1.4625 8.53749C1.0125 8.08716 0.656334 7.55799 0.394 6.94999C0.131667 6.34199 0.000333966 5.692 6.32911e-07 5C-0.0003327 4.308 0.131001 3.658 0.394 3.05C0.657 2.442 1.01317 1.91283 1.4625 1.4625C1.91183 1.01217 2.441 0.656002 3.05 0.394002C3.659 0.132002 4.309 0.000669191 5 2.52525e-06C5.691 -0.000664141 6.341 0.130669 6.95 0.394002C7.559 0.657335 8.08816 1.0135 8.5375 1.4625C8.98683 1.9115 9.34316 2.44067 9.60649 3.05C9.86983 3.65933 10.001 4.30933 9.99999 5C9.99899 5.69066 9.86766 6.34066 9.60599 6.94999C9.34433 7.55933 8.98816 8.08849 8.5375 8.53749C8.08683 8.98649 7.55766 9.34282 6.95 9.60649C6.34233 9.87016 5.69233 10.0013 5 9.99999Z" fill="#8A8A8A"/>
</svg>
