<svg width="30" height="22" viewBox="0 0 30 22" fill="none" xmlns="http://www.w3.org/2000/svg">
<path fill-rule="evenodd" clip-rule="evenodd" d="M9.528 2.244C11.3478 2.08698 13.1734 2.00558 15 2C16.88 2 18.736 2.098 20.472 2.244C22.56 2.42 23.912 2.54 24.944 2.784C25.884 3.006 26.41 3.3 26.862 3.762C26.91 3.812 26.982 3.888 27.026 3.942C27.426 4.402 27.686 4.978 27.836 6.066C27.996 7.232 28 8.752 28 11.05C28 13.32 27.996 14.82 27.836 15.97C27.688 17.042 27.428 17.612 27.026 18.078L26.86 18.258C26.4 18.726 25.88 19.016 24.964 19.232C23.95 19.472 22.628 19.588 20.576 19.76C18.838 19.904 16.952 20 15 20C13.048 20 11.16 19.904 9.424 19.76C7.372 19.588 6.05 19.472 5.036 19.232C4.118 19.016 3.598 18.726 3.14 18.258L2.974 18.078C2.574 17.612 2.314 17.042 2.164 15.97C2.004 14.82 2 13.32 2 11.05C2 8.752 2.004 7.23 2.164 6.066C2.314 4.978 2.574 4.402 2.974 3.942C3.02 3.888 3.09 3.812 3.138 3.762C3.59 3.3 4.116 3.006 5.056 2.784C6.09 2.54 7.44 2.42 9.528 2.244ZM0 11.05C0 6.566 0 4.324 1.46 2.634C1.532 2.55 1.63 2.444 1.708 2.364C3.268 0.766 5.3 0.594 9.36 0.252C11.14 0.0999999 13.054 0 15 0C16.946 0 18.86 0.0999999 20.64 0.252C24.7 0.594 26.732 0.766 28.292 2.364C28.37 2.444 28.466 2.55 28.54 2.634C30 4.324 30 6.566 30 11.05C30 15.48 30 17.696 28.538 19.386C28.4574 19.4785 28.3741 19.5686 28.288 19.656C26.726 21.254 24.732 21.42 20.742 21.752C18.96 21.902 17.016 22 15 22C12.984 22 11.04 21.9 9.26 21.752C5.268 21.42 3.274 21.252 1.712 19.656C1.62593 19.5686 1.54255 19.4785 1.462 19.386C0 17.696 0 15.48 0 11.05ZM10.5 6.766C10.4997 6.68283 10.5202 6.6009 10.5595 6.52764C10.5989 6.45437 10.6559 6.39208 10.7254 6.3464C10.7949 6.30073 10.8747 6.27311 10.9576 6.26606C11.0405 6.259 11.1238 6.27273 11.2 6.306L20.856 10.542C21.256 10.718 21.256 11.282 20.856 11.458L11.2 15.692C11.1239 15.7252 11.0408 15.7389 10.9581 15.732C10.8754 15.725 10.7957 15.6976 10.7262 15.6521C10.6568 15.6067 10.5997 15.5447 10.5602 15.4717C10.5207 15.3987 10.5 15.317 10.5 15.234V6.766Z" fill="#F83B3B"/>
</svg>
