<svg width="20" height="16" viewBox="0 0 20 16" fill="none" xmlns="http://www.w3.org/2000/svg">
<path fill-rule="evenodd" clip-rule="evenodd" d="M6.352 2.16267C7.56523 2.05799 8.78227 2.00372 10 2.00001C11.2533 2.00001 12.4907 2.06534 13.648 2.16267C15.04 2.28001 15.9413 2.36001 16.6293 2.52267C17.256 2.67067 17.6067 2.86667 17.908 3.17467C17.94 3.20801 17.988 3.25867 18.0173 3.29467C18.284 3.60134 18.4573 3.98534 18.5573 4.71067C18.664 5.48801 18.6667 6.50134 18.6667 8.03334C18.6667 9.54667 18.664 10.5467 18.5573 11.3133C18.4587 12.028 18.2853 12.408 18.0173 12.7187L17.9067 12.8387C17.6 13.1507 17.2533 13.344 16.6427 13.488C15.9667 13.648 15.0853 13.7253 13.7173 13.84C12.5587 13.936 11.3013 14 10 14C8.69867 14 7.44 13.936 6.28267 13.84C4.91467 13.7253 4.03333 13.648 3.35733 13.488C2.74533 13.344 2.39867 13.1507 2.09333 12.8387L1.98267 12.7187C1.716 12.408 1.54267 12.028 1.44267 11.3133C1.336 10.5467 1.33333 9.54667 1.33333 8.03334C1.33333 6.50134 1.336 5.48667 1.44267 4.71067C1.54267 3.98534 1.716 3.60134 1.98267 3.29467C2.01333 3.25867 2.06 3.20801 2.092 3.17467C2.39333 2.86667 2.744 2.67067 3.37067 2.52267C4.06 2.36001 4.96 2.28001 6.352 2.16267ZM0 8.03334C0 5.04401 0 3.54934 0.973333 2.42267C1.02133 2.36667 1.08667 2.29601 1.13867 2.24267C2.17867 1.17734 3.53333 1.06267 6.24 0.834672C7.42667 0.733338 8.70267 0.666672 10 0.666672C11.2973 0.666672 12.5733 0.733338 13.76 0.834672C16.4667 1.06267 17.8213 1.17734 18.8613 2.24267C18.9133 2.29601 18.9773 2.36667 19.0267 2.42267C20 3.54934 20 5.04401 20 8.03334C20 10.9867 20 12.464 19.0253 13.5907C18.9716 13.6524 18.916 13.7124 18.8587 13.7707C17.8173 14.836 16.488 14.9467 13.828 15.168C12.64 15.268 11.344 15.3333 10 15.3333C8.656 15.3333 7.36 15.2667 6.17333 15.168C3.512 14.9467 2.18267 14.8347 1.14133 13.7707C1.08395 13.7124 1.02837 13.6524 0.974667 13.5907C0 12.464 0 10.9867 0 8.03334ZM7 5.17734C6.99981 5.12189 7.01345 5.06727 7.03969 5.01843C7.06593 4.96958 7.10394 4.92806 7.15027 4.89761C7.19661 4.86716 7.24981 4.84875 7.30506 4.84404C7.3603 4.83934 7.41585 4.84849 7.46667 4.87067L13.904 7.69467C14.1707 7.81201 14.1707 8.18801 13.904 8.30534L7.46667 11.128C7.41595 11.1501 7.36053 11.1593 7.30539 11.1547C7.25025 11.15 7.19713 11.1317 7.15083 11.1014C7.10453 11.0711 7.0665 11.0298 7.04016 10.9811C7.01383 10.9325 7.00003 10.878 7 10.8227V5.17734Z" fill="white"/>
</svg>
